<svg xmlns="http://www.w3.org/2000/svg" viewBox="0 0 1200 900" width="1200" height="900"><defs><radialGradient id="bg" cx="38%" cy="42%" r="80%"><stop offset="0%" stop-color="#26312a"></stop><stop offset="55%" stop-color="#202a22"></stop><stop offset="100%" stop-color="#161f19"></stop></radialGradient><radialGradient id="brassGlow" cx="50%" cy="50%" r="50%"><stop offset="0%" stop-color="#c9ad6a" stop-opacity="0.9"></stop><stop offset="60%" stop-color="#9a8654" stop-opacity="0.35"></stop><stop offset="100%" stop-color="#9a8654" stop-opacity="0"></stop></radialGradient><filter id="soft"><feGaussianBlur stdDeviation="0.5"></feGaussianBlur></filter></defs><rect width="1200" height="900" fill="url(#bg)"></rect><g stroke="#eef0e6" stroke-opacity="0.04" fill="none"><circle cx="900" cy="150" r="120"></circle><circle cx="900" cy="150" r="212"></circle><circle cx="900" cy="150" r="304"></circle><circle cx="900" cy="150" r="396"></circle><circle cx="900" cy="150" r="488"></circle><circle cx="900" cy="150" r="580"></circle><circle cx="900" cy="150" r="672"></circle><circle cx="900" cy="150" r="764"></circle><circle cx="900" cy="150" r="856"></circle><circle cx="900" cy="150" r="948"></circle><circle cx="900" cy="150" r="1040"></circle><circle cx="900" cy="150" r="1132"></circle><circle cx="900" cy="150" r="1224"></circle></g><g fill="none" stroke-linecap="round"><circle cx="905" cy="168" r="70" stroke="#9a8654" stroke-opacity="0.500" stroke-width="2.20" stroke-dasharray="1 9"></circle><circle cx="905" cy="168" r="122" stroke="#9a8654" stroke-opacity="0.430" stroke-width="2.02" stroke-dasharray="2 10"></circle><circle cx="905" cy="168" r="174" stroke="#9a8654" stroke-opacity="0.360" stroke-width="1.84" stroke-dasharray="1 9"></circle><circle cx="905" cy="168" r="226" stroke="#9a8654" stroke-opacity="0.290" stroke-width="1.66" stroke-dasharray="2 10"></circle><circle cx="905" cy="168" r="278" stroke="#9a8654" stroke-opacity="0.220" stroke-width="1.48" stroke-dasharray="1 9"></circle><circle cx="905" cy="168" r="330" stroke="#9a8654" stroke-opacity="0.150" stroke-width="1.30" stroke-dasharray="2 10"></circle></g><g transform="translate(905,168)"><circle r="34" fill="#eef0e6" fill-opacity="0.08" stroke="#eef0e6" stroke-opacity="0.5" stroke-width="2"></circle><circle r="20" fill="none" stroke="#c9ad6a" stroke-opacity="0.85" stroke-width="3"></circle><circle r="8" fill="#c9ad6a"></circle></g><g stroke-linecap="round"><line x1="393.3" y1="453.0" x2="414.2" y2="549.0" stroke="#8fa08c" stroke-opacity="0.232" stroke-width="0.8"></line><line x1="393.3" y1="453.0" x2="309.9" y2="515.8" stroke="#8fa08c" stroke-opacity="0.212" stroke-width="0.8"></line><line x1="393.3" y1="453.0" x2="388.3" y2="389.8" stroke="#8fa08c" stroke-opacity="0.349" stroke-width="0.8"></line><line x1="393.3" y1="453.0" x2="444.9" y2="374.9" stroke="#8fa08c" stroke-opacity="0.248" stroke-width="0.8"></line><line x1="393.3" y1="453.0" x2="472.9" y2="465.6" stroke="#8fa08c" stroke-opacity="0.291" stroke-width="0.8"></line><line x1="393.3" y1="453.0" x2="431.4" y2="446.7" stroke="#9a8654" stroke-opacity="0.431" stroke-width="1.1"></line><line x1="393.3" y1="453.0" x2="448.8" y2="463.4" stroke="#9a8654" stroke-opacity="0.372" stroke-width="1.1"></line><line x1="393.3" y1="453.0" x2="398.2" y2="489.4" stroke="#8fa08c" stroke-opacity="0.437" stroke-width="0.8"></line><line x1="393.3" y1="453.0" x2="429.1" y2="447.0" stroke="#9a8654" stroke-opacity="0.439" stroke-width="1.1"></line><line x1="393.3" y1="453.0" x2="266.8" y2="396.3" stroke="#8fa08c" stroke-opacity="0.098" stroke-width="0.8"></line><line x1="393.3" y1="453.0" x2="361.4" y2="419.6" stroke="#8fa08c" stroke-opacity="0.406" stroke-width="0.8"></line><line x1="393.3" y1="453.0" x2="415.7" y2="457.6" stroke="#9a8654" stroke-opacity="0.484" stroke-width="1.1"></line><line x1="393.3" y1="453.0" x2="354.4" y2="508.6" stroke="#9a8654" stroke-opacity="0.333" stroke-width="1.1"></line><line x1="393.3" y1="453.0" x2="366.9" y2="399.4" stroke="#8fa08c" stroke-opacity="0.361" stroke-width="0.8"></line><line x1="393.3" y1="453.0" x2="318.3" y2="453.9" stroke="#8fa08c" stroke-opacity="0.310" stroke-width="0.8"></line><line x1="393.3" y1="453.0" x2="453.0" y2="549.1" stroke="#8fa08c" stroke-opacity="0.183" stroke-width="0.8"></line><line x1="393.3" y1="453.0" x2="405.9" y2="451.5" stroke="#9a8654" stroke-opacity="0.518" stroke-width="1.1"></line><line x1="393.3" y1="453.0" x2="343.4" y2="350.0" stroke="#9a8654" stroke-opacity="0.178" stroke-width="1.1"></line><line x1="393.3" y1="453.0" x2="467.3" y2="494.4" stroke="#9a8654" stroke-opacity="0.277" stroke-width="1.1"></line><line x1="393.3" y1="453.0" x2="445.6" y2="568.3" stroke="#8fa08c" stroke-opacity="0.138" stroke-width="0.8"></line><line x1="393.3" y1="453.0" x2="542.5" y2="442.6" stroke="#9a8654" stroke-opacity="0.062" stroke-width="1.1"></line><line x1="393.3" y1="453.0" x2="461.2" y2="371.6" stroke="#9a8654" stroke-opacity="0.207" stroke-width="1.1"></line><line x1="393.3" y1="453.0" x2="395.6" y2="479.4" stroke="#8fa08c" stroke-opacity="0.472" stroke-width="0.8"></line><line x1="344.6" y1="600.6" x2="414.2" y2="549.0" stroke="#9a8654" stroke-opacity="0.271" stroke-width="1.1"></line><line x1="344.6" y1="600.6" x2="309.9" y2="515.8" stroke="#9a8654" stroke-opacity="0.255" stroke-width="1.1"></line><line x1="344.6" y1="600.6" x2="398.2" y2="489.4" stroke="#9a8654" stroke-opacity="0.148" stroke-width="1.1"></line><line x1="344.6" y1="600.6" x2="354.4" y2="508.6" stroke="#9a8654" stroke-opacity="0.252" stroke-width="1.1"></line><line x1="344.6" y1="600.6" x2="318.3" y2="453.9" stroke="#9a8654" stroke-opacity="0.063" stroke-width="1.1"></line><line x1="344.6" y1="600.6" x2="453.0" y2="549.1" stroke="#9a8654" stroke-opacity="0.160" stroke-width="1.1"></line><line x1="344.6" y1="600.6" x2="253.0" y2="524.3" stroke="#9a8654" stroke-opacity="0.162" stroke-width="1.1"></line><line x1="344.6" y1="600.6" x2="445.6" y2="568.3" stroke="#9a8654" stroke-opacity="0.207" stroke-width="1.1"></line><line x1="344.6" y1="600.6" x2="216.7" y2="592.4" stroke="#9a8654" stroke-opacity="0.133" stroke-width="1.1"></line><line x1="344.6" y1="600.6" x2="284.8" y2="617.9" stroke="#9a8654" stroke-opacity="0.352" stroke-width="1.1"></line><line x1="344.6" y1="600.6" x2="395.6" y2="479.4" stroke="#9a8654" stroke-opacity="0.122" stroke-width="1.1"></line><line x1="605.8" y1="345.1" x2="557.3" y2="428.6" stroke="#9a8654" stroke-opacity="0.238" stroke-width="1.1"></line><line x1="605.8" y1="345.1" x2="633.9" y2="393.0" stroke="#9a8654" stroke-opacity="0.375" stroke-width="1.1"></line><line x1="605.8" y1="345.1" x2="569.4" y2="430.6" stroke="#9a8654" stroke-opacity="0.250" stroke-width="1.1"></line><line x1="605.8" y1="345.1" x2="546.9" y2="300.4" stroke="#9a8654" stroke-opacity="0.314" stroke-width="1.1"></line><line x1="605.8" y1="345.1" x2="514.5" y2="298.6" stroke="#9a8654" stroke-opacity="0.218" stroke-width="1.1"></line><line x1="605.8" y1="345.1" x2="542.5" y2="442.6" stroke="#9a8654" stroke-opacity="0.173" stroke-width="1.1"></line><line x1="605.8" y1="345.1" x2="478.7" y2="279.3" stroke="#9a8654" stroke-opacity="0.083" stroke-width="1.1"></line><line x1="605.8" y1="345.1" x2="643.3" y2="345.2" stroke="#9a8654" stroke-opacity="0.435" stroke-width="1.1"></line><line x1="605.8" y1="345.1" x2="461.2" y2="371.6" stroke="#9a8654" stroke-opacity="0.070" stroke-width="1.1"></line><line x1="605.8" y1="345.1" x2="572.1" y2="337.1" stroke="#9a8654" stroke-opacity="0.444" stroke-width="1.1"></line><line x1="605.8" y1="345.1" x2="705.1" y2="365.1" stroke="#9a8654" stroke-opacity="0.223" stroke-width="1.1"></line><line x1="414.2" y1="549.0" x2="309.9" y2="515.8" stroke="#8fa08c" stroke-opacity="0.195" stroke-width="0.8"></line><line x1="414.2" y1="549.0" x2="472.9" y2="465.6" stroke="#8fa08c" stroke-opacity="0.220" stroke-width="0.8"></line><line x1="414.2" y1="549.0" x2="431.4" y2="446.7" stroke="#9a8654" stroke-opacity="0.214" stroke-width="1.1"></line><line x1="414.2" y1="549.0" x2="448.8" y2="463.4" stroke="#9a8654" stroke-opacity="0.252" stroke-width="1.1"></line><line x1="414.2" y1="549.0" x2="398.2" y2="489.4" stroke="#8fa08c" stroke-opacity="0.354" stroke-width="0.8"></line><line x1="414.2" y1="549.0" x2="429.1" y2="447.0" stroke="#9a8654" stroke-opacity="0.217" stroke-width="1.1"></line><line x1="414.2" y1="549.0" x2="361.4" y2="419.6" stroke="#8fa08c" stroke-opacity="0.094" stroke-width="0.8"></line><line x1="414.2" y1="549.0" x2="415.7" y2="457.6" stroke="#9a8654" stroke-opacity="0.255" stroke-width="1.1"></line><line x1="414.2" y1="549.0" x2="354.4" y2="508.6" stroke="#9a8654" stroke-opacity="0.319" stroke-width="1.1"></line><line x1="414.2" y1="549.0" x2="318.3" y2="453.9" stroke="#8fa08c" stroke-opacity="0.110" stroke-width="0.8"></line><line x1="414.2" y1="549.0" x2="453.0" y2="549.1" stroke="#8fa08c" stroke-opacity="0.431" stroke-width="0.8"></line><line x1="414.2" y1="549.0" x2="405.9" y2="451.5" stroke="#9a8654" stroke-opacity="0.234" stroke-width="1.1"></line><line x1="414.2" y1="549.0" x2="467.3" y2="494.4" stroke="#9a8654" stroke-opacity="0.306" stroke-width="1.1"></line><line x1="414.2" y1="549.0" x2="445.6" y2="568.3" stroke="#8fa08c" stroke-opacity="0.437" stroke-width="0.8"></line><line x1="414.2" y1="549.0" x2="284.8" y2="617.9" stroke="#9a8654" stroke-opacity="0.071" stroke-width="1.1"></line><line x1="414.2" y1="549.0" x2="395.6" y2="479.4" stroke="#8fa08c" stroke-opacity="0.320" stroke-width="0.8"></line><line x1="309.9" y1="515.8" x2="206.3" y2="463.2" stroke="#8fa08c" stroke-opacity="0.173" stroke-width="0.8"></line><line x1="309.9" y1="515.8" x2="388.3" y2="389.8" stroke="#8fa08c" stroke-opacity="0.065" stroke-width="0.8"></line><line x1="309.9" y1="515.8" x2="431.4" y2="446.7" stroke="#9a8654" stroke-opacity="0.094" stroke-width="1.1"></line><line x1="309.9" y1="515.8" x2="448.8" y2="463.4" stroke="#9a8654" stroke-opacity="0.065" stroke-width="1.1"></line><line x1="309.9" y1="515.8" x2="398.2" y2="489.4" stroke="#8fa08c" stroke-opacity="0.253" stroke-width="0.8"></line><line x1="309.9" y1="515.8" x2="429.1" y2="447.0" stroke="#9a8654" stroke-opacity="0.101" stroke-width="1.1"></line><line x1="309.9" y1="515.8" x2="266.8" y2="396.3" stroke="#8fa08c" stroke-opacity="0.136" stroke-width="0.8"></line><line x1="309.9" y1="515.8" x2="361.4" y2="419.6" stroke="#8fa08c" stroke-opacity="0.196" stroke-width="0.8"></line><line x1="309.9" y1="515.8" x2="415.7" y2="457.6" stroke="#9a8654" stroke-opacity="0.158" stroke-width="1.1"></line><line x1="309.9" y1="515.8" x2="354.4" y2="508.6" stroke="#9a8654" stroke-opacity="0.410" stroke-width="1.1"></line><line x1="309.9" y1="515.8" x2="366.9" y2="399.4" stroke="#8fa08c" stroke-opacity="0.128" stroke-width="0.8"></line><line x1="309.9" y1="515.8" x2="318.3" y2="453.9" stroke="#8fa08c" stroke-opacity="0.352" stroke-width="0.8"></line><line x1="309.9" y1="515.8" x2="453.0" y2="549.1" stroke="#8fa08c" stroke-opacity="0.070" stroke-width="0.8"></line><line x1="309.9" y1="515.8" x2="405.9" y2="451.5" stroke="#9a8654" stroke-opacity="0.175" stroke-width="1.1"></line><line x1="309.9" y1="515.8" x2="253.0" y2="524.3" stroke="#8fa08c" stroke-opacity="0.368" stroke-width="0.8"></line><line x1="309.9" y1="515.8" x2="445.6" y2="568.3" stroke="#8fa08c" stroke-opacity="0.075" stroke-width="0.8"></line><line x1="309.9" y1="515.8" x2="216.7" y2="592.4" stroke="#9a8654" stroke-opacity="0.158" stroke-width="1.1"></line><line x1="309.9" y1="515.8" x2="284.8" y2="617.9" stroke="#9a8654" stroke-opacity="0.209" stroke-width="1.1"></line><line x1="309.9" y1="515.8" x2="395.6" y2="479.4" stroke="#8fa08c" stroke-opacity="0.250" stroke-width="0.8"></line><line x1="309.9" y1="515.8" x2="201.6" y2="462.3" stroke="#8fa08c" stroke-opacity="0.157" stroke-width="0.8"></line><line x1="557.3" y1="428.6" x2="633.9" y2="393.0" stroke="#9a8654" stroke-opacity="0.278" stroke-width="1.1"></line><line x1="557.3" y1="428.6" x2="444.9" y2="374.9" stroke="#9a8654" stroke-opacity="0.145" stroke-width="1.1"></line><line x1="557.3" y1="428.6" x2="569.4" y2="430.6" stroke="#9a8654" stroke-opacity="0.519" stroke-width="1.1"></line><line x1="557.3" y1="428.6" x2="472.9" y2="465.6" stroke="#9a8654" stroke-opacity="0.253" stroke-width="1.1"></line><line x1="557.3" y1="428.6" x2="431.4" y2="446.7" stroke="#9a8654" stroke-opacity="0.136" stroke-width="1.1"></line><line x1="557.3" y1="428.6" x2="448.8" y2="463.4" stroke="#9a8654" stroke-opacity="0.180" stroke-width="1.1"></line><line x1="557.3" y1="428.6" x2="429.1" y2="447.0" stroke="#9a8654" stroke-opacity="0.128" stroke-width="1.1"></line><line x1="557.3" y1="428.6" x2="415.7" y2="457.6" stroke="#9a8654" stroke-opacity="0.078" stroke-width="1.1"></line><line x1="557.3" y1="428.6" x2="546.9" y2="300.4" stroke="#9a8654" stroke-opacity="0.131" stroke-width="1.1"></line><line x1="557.3" y1="428.6" x2="514.5" y2="298.6" stroke="#9a8654" stroke-opacity="0.104" stroke-width="1.1"></line><line x1="557.3" y1="428.6" x2="467.3" y2="494.4" stroke="#9a8654" stroke-opacity="0.188" stroke-width="1.1"></line><line x1="557.3" y1="428.6" x2="542.5" y2="442.6" stroke="#9a8654" stroke-opacity="0.492" stroke-width="1.1"></line><line x1="557.3" y1="428.6" x2="643.3" y2="345.2" stroke="#9a8654" stroke-opacity="0.161" stroke-width="1.1"></line><line x1="557.3" y1="428.6" x2="461.2" y2="371.6" stroke="#9a8654" stroke-opacity="0.187" stroke-width="1.1"></line><line x1="557.3" y1="428.6" x2="572.1" y2="337.1" stroke="#9a8654" stroke-opacity="0.251" stroke-width="1.1"></line><line x1="633.9" y1="393.0" x2="569.4" y2="430.6" stroke="#9a8654" stroke-opacity="0.311" stroke-width="1.1"></line><line x1="633.9" y1="393.0" x2="546.9" y2="300.4" stroke="#9a8654" stroke-opacity="0.137" stroke-width="1.1"></line><line x1="633.9" y1="393.0" x2="542.5" y2="442.6" stroke="#9a8654" stroke-opacity="0.213" stroke-width="1.1"></line><line x1="633.9" y1="393.0" x2="643.3" y2="345.2" stroke="#9a8654" stroke-opacity="0.398" stroke-width="1.1"></line><line x1="633.9" y1="393.0" x2="572.1" y2="337.1" stroke="#9a8654" stroke-opacity="0.282" stroke-width="1.1"></line><line x1="633.9" y1="393.0" x2="705.1" y2="365.1" stroke="#9a8654" stroke-opacity="0.305" stroke-width="1.1"></line><line x1="206.3" y1="463.2" x2="266.8" y2="396.3" stroke="#8fa08c" stroke-opacity="0.259" stroke-width="0.8"></line><line x1="206.3" y1="463.2" x2="318.3" y2="453.9" stroke="#8fa08c" stroke-opacity="0.185" stroke-width="0.8"></line><line x1="206.3" y1="463.2" x2="233.4" y2="383.1" stroke="#8fa08c" stroke-opacity="0.278" stroke-width="0.8"></line><line x1="206.3" y1="463.2" x2="253.0" y2="524.3" stroke="#8fa08c" stroke-opacity="0.304" stroke-width="0.8"></line><line x1="206.3" y1="463.2" x2="216.7" y2="592.4" stroke="#9a8654" stroke-opacity="0.128" stroke-width="1.1"></line><line x1="206.3" y1="463.2" x2="201.6" y2="462.3" stroke="#8fa08c" stroke-opacity="0.544" stroke-width="0.8"></line><line x1="388.3" y1="389.8" x2="444.9" y2="374.9" stroke="#8fa08c" stroke-opacity="0.365" stroke-width="0.8"></line><line x1="388.3" y1="389.8" x2="472.9" y2="465.6" stroke="#8fa08c" stroke-opacity="0.181" stroke-width="0.8"></line><line x1="388.3" y1="389.8" x2="431.4" y2="446.7" stroke="#9a8654" stroke-opacity="0.322" stroke-width="1.1"></line><line x1="388.3" y1="389.8" x2="448.8" y2="463.4" stroke="#9a8654" stroke-opacity="0.242" stroke-width="1.1"></line><line x1="388.3" y1="389.8" x2="398.2" y2="489.4" stroke="#8fa08c" stroke-opacity="0.226" stroke-width="0.8"></line><line x1="388.3" y1="389.8" x2="429.1" y2="447.0" stroke="#9a8654" stroke-opacity="0.326" stroke-width="1.1"></line><line x1="388.3" y1="389.8" x2="266.8" y2="396.3" stroke="#8fa08c" stroke-opacity="0.154" stroke-width="0.8"></line><line x1="388.3" y1="389.8" x2="361.4" y2="419.6" stroke="#8fa08c" stroke-opacity="0.426" stroke-width="0.8"></line><line x1="388.3" y1="389.8" x2="415.7" y2="457.6" stroke="#9a8654" stroke-opacity="0.316" stroke-width="1.1"></line><line x1="388.3" y1="389.8" x2="354.4" y2="508.6" stroke="#9a8654" stroke-opacity="0.148" stroke-width="1.1"></line><line x1="388.3" y1="389.8" x2="366.9" y2="399.4" stroke="#8fa08c" stroke-opacity="0.482" stroke-width="0.8"></line><line x1="388.3" y1="389.8" x2="318.3" y2="453.9" stroke="#8fa08c" stroke-opacity="0.243" stroke-width="0.8"></line><line x1="388.3" y1="389.8" x2="405.9" y2="451.5" stroke="#9a8654" stroke-opacity="0.346" stroke-width="1.1"></line><line x1="388.3" y1="389.8" x2="343.4" y2="350.0" stroke="#9a8654" stroke-opacity="0.360" stroke-width="1.1"></line><line x1="388.3" y1="389.8" x2="467.3" y2="494.4" stroke="#9a8654" stroke-opacity="0.123" stroke-width="1.1"></line><line x1="388.3" y1="389.8" x2="478.7" y2="279.3" stroke="#9a8654" stroke-opacity="0.084" stroke-width="1.1"></line><line x1="388.3" y1="389.8" x2="461.2" y2="371.6" stroke="#9a8654" stroke-opacity="0.310" stroke-width="1.1"></line><line x1="388.3" y1="389.8" x2="395.6" y2="479.4" stroke="#8fa08c" stroke-opacity="0.260" stroke-width="0.8"></line><line x1="444.9" y1="374.9" x2="569.4" y2="430.6" stroke="#8fa08c" stroke-opacity="0.105" stroke-width="0.8"></line><line x1="444.9" y1="374.9" x2="472.9" y2="465.6" stroke="#8fa08c" stroke-opacity="0.244" stroke-width="0.8"></line><line x1="444.9" y1="374.9" x2="431.4" y2="446.7" stroke="#9a8654" stroke-opacity="0.317" stroke-width="1.1"></line><line x1="444.9" y1="374.9" x2="448.8" y2="463.4" stroke="#9a8654" stroke-opacity="0.265" stroke-width="1.1"></line><line x1="444.9" y1="374.9" x2="398.2" y2="489.4" stroke="#8fa08c" stroke-opacity="0.148" stroke-width="0.8"></line><line x1="444.9" y1="374.9" x2="429.1" y2="447.0" stroke="#9a8654" stroke-opacity="0.314" stroke-width="1.1"></line><line x1="444.9" y1="374.9" x2="361.4" y2="419.6" stroke="#8fa08c" stroke-opacity="0.245" stroke-width="0.8"></line><line x1="444.9" y1="374.9" x2="415.7" y2="457.6" stroke="#9a8654" stroke-opacity="0.268" stroke-width="1.1"></line><line x1="444.9" y1="374.9" x2="546.9" y2="300.4" stroke="#8fa08c" stroke-opacity="0.139" stroke-width="0.8"></line><line x1="444.9" y1="374.9" x2="366.9" y2="399.4" stroke="#8fa08c" stroke-opacity="0.287" stroke-width="0.8"></line><line x1="444.9" y1="374.9" x2="318.3" y2="453.9" stroke="#8fa08c" stroke-opacity="0.063" stroke-width="0.8"></line><line x1="444.9" y1="374.9" x2="514.5" y2="298.6" stroke="#8fa08c" stroke-opacity="0.216" stroke-width="0.8"></line><line x1="444.9" y1="374.9" x2="405.9" y2="451.5" stroke="#9a8654" stroke-opacity="0.274" stroke-width="1.1"></line><line x1="444.9" y1="374.9" x2="343.4" y2="350.0" stroke="#9a8654" stroke-opacity="0.212" stroke-width="1.1"></line><line x1="444.9" y1="374.9" x2="467.3" y2="494.4" stroke="#9a8654" stroke-opacity="0.155" stroke-width="1.1"></line><line x1="444.9" y1="374.9" x2="542.5" y2="442.6" stroke="#9a8654" stroke-opacity="0.164" stroke-width="1.1"></line><line x1="444.9" y1="374.9" x2="478.7" y2="279.3" stroke="#9a8654" stroke-opacity="0.222" stroke-width="1.1"></line><line x1="444.9" y1="374.9" x2="461.2" y2="371.6" stroke="#9a8654" stroke-opacity="0.504" stroke-width="1.1"></line><line x1="444.9" y1="374.9" x2="395.6" y2="479.4" stroke="#8fa08c" stroke-opacity="0.175" stroke-width="0.8"></line><line x1="444.9" y1="374.9" x2="572.1" y2="337.1" stroke="#9a8654" stroke-opacity="0.118" stroke-width="1.1"></line><line x1="569.4" y1="430.6" x2="472.9" y2="465.6" stroke="#8fa08c" stroke-opacity="0.218" stroke-width="0.8"></line><line x1="569.4" y1="430.6" x2="431.4" y2="446.7" stroke="#9a8654" stroke-opacity="0.097" stroke-width="1.1"></line><line x1="569.4" y1="430.6" x2="448.8" y2="463.4" stroke="#9a8654" stroke-opacity="0.143" stroke-width="1.1"></line><line x1="569.4" y1="430.6" x2="429.1" y2="447.0" stroke="#9a8654" stroke-opacity="0.089" stroke-width="1.1"></line><line x1="569.4" y1="430.6" x2="546.9" y2="300.4" stroke="#8fa08c" stroke-opacity="0.120" stroke-width="0.8"></line><line x1="569.4" y1="430.6" x2="514.5" y2="298.6" stroke="#8fa08c" stroke-opacity="0.083" stroke-width="0.8"></line><line x1="569.4" y1="430.6" x2="467.3" y2="494.4" stroke="#9a8654" stroke-opacity="0.159" stroke-width="1.1"></line><line x1="569.4" y1="430.6" x2="542.5" y2="442.6" stroke="#9a8654" stroke-opacity="0.462" stroke-width="1.1"></line><line x1="569.4" y1="430.6" x2="643.3" y2="345.2" stroke="#8fa08c" stroke-opacity="0.184" stroke-width="0.8"></line><line x1="569.4" y1="430.6" x2="461.2" y2="371.6" stroke="#9a8654" stroke-opacity="0.149" stroke-width="1.1"></line><line x1="569.4" y1="430.6" x2="572.1" y2="337.1" stroke="#9a8654" stroke-opacity="0.248" stroke-width="1.1"></line><line x1="472.9" y1="465.6" x2="431.4" y2="446.7" stroke="#9a8654" stroke-opacity="0.408" stroke-width="1.1"></line><line x1="472.9" y1="465.6" x2="448.8" y2="463.4" stroke="#9a8654" stroke-opacity="0.479" stroke-width="1.1"></line><line x1="472.9" y1="465.6" x2="398.2" y2="489.4" stroke="#8fa08c" stroke-opacity="0.299" stroke-width="0.8"></line><line x1="472.9" y1="465.6" x2="429.1" y2="447.0" stroke="#9a8654" stroke-opacity="0.401" stroke-width="1.1"></line><line x1="472.9" y1="465.6" x2="361.4" y2="419.6" stroke="#8fa08c" stroke-opacity="0.158" stroke-width="0.8"></line><line x1="472.9" y1="465.6" x2="415.7" y2="457.6" stroke="#9a8654" stroke-opacity="0.368" stroke-width="1.1"></line><line x1="472.9" y1="465.6" x2="354.4" y2="508.6" stroke="#9a8654" stroke-opacity="0.140" stroke-width="1.1"></line><line x1="472.9" y1="465.6" x2="366.9" y2="399.4" stroke="#8fa08c" stroke-opacity="0.143" stroke-width="0.8"></line><line x1="472.9" y1="465.6" x2="453.0" y2="549.1" stroke="#8fa08c" stroke-opacity="0.274" stroke-width="0.8"></line><line x1="472.9" y1="465.6" x2="405.9" y2="451.5" stroke="#9a8654" stroke-opacity="0.332" stroke-width="1.1"></line><line x1="472.9" y1="465.6" x2="467.3" y2="494.4" stroke="#9a8654" stroke-opacity="0.462" stroke-width="1.1"></line><line x1="472.9" y1="465.6" x2="445.6" y2="568.3" stroke="#8fa08c" stroke-opacity="0.206" stroke-width="0.8"></line><line x1="472.9" y1="465.6" x2="542.5" y2="442.6" stroke="#9a8654" stroke-opacity="0.316" stroke-width="1.1"></line><line x1="472.9" y1="465.6" x2="461.2" y2="371.6" stroke="#9a8654" stroke-opacity="0.244" stroke-width="1.1"></line><line x1="472.9" y1="465.6" x2="395.6" y2="479.4" stroke="#8fa08c" stroke-opacity="0.298" stroke-width="0.8"></line><line x1="431.4" y1="446.7" x2="448.8" y2="463.4" stroke="#9a8654" stroke-opacity="0.479" stroke-width="1.1"></line><line x1="431.4" y1="446.7" x2="398.2" y2="489.4" stroke="#9a8654" stroke-opacity="0.380" stroke-width="1.1"></line><line x1="431.4" y1="446.7" x2="429.1" y2="447.0" stroke="#9a8654" stroke-opacity="0.552" stroke-width="1.1"></line><line x1="431.4" y1="446.7" x2="361.4" y2="419.6" stroke="#9a8654" stroke-opacity="0.310" stroke-width="1.1"></line><line x1="431.4" y1="446.7" x2="415.7" y2="457.6" stroke="#9a8654" stroke-opacity="0.496" stroke-width="1.1"></line><line x1="431.4" y1="446.7" x2="354.4" y2="508.6" stroke="#9a8654" stroke-opacity="0.231" stroke-width="1.1"></line><line x1="431.4" y1="446.7" x2="366.9" y2="399.4" stroke="#9a8654" stroke-opacity="0.293" stroke-width="1.1"></line><line x1="431.4" y1="446.7" x2="318.3" y2="453.9" stroke="#9a8654" stroke-opacity="0.182" stroke-width="1.1"></line><line x1="431.4" y1="446.7" x2="453.0" y2="549.1" stroke="#9a8654" stroke-opacity="0.211" stroke-width="1.1"></line><line x1="431.4" y1="446.7" x2="405.9" y2="451.5" stroke="#9a8654" stroke-opacity="0.474" stroke-width="1.1"></line><line x1="431.4" y1="446.7" x2="343.4" y2="350.0" stroke="#9a8654" stroke-opacity="0.124" stroke-width="1.1"></line><line x1="431.4" y1="446.7" x2="467.3" y2="494.4" stroke="#9a8654" stroke-opacity="0.361" stroke-width="1.1"></line><line x1="431.4" y1="446.7" x2="445.6" y2="568.3" stroke="#9a8654" stroke-opacity="0.152" stroke-width="1.1"></line><line x1="431.4" y1="446.7" x2="542.5" y2="442.6" stroke="#9a8654" stroke-opacity="0.190" stroke-width="1.1"></line><line x1="431.4" y1="446.7" x2="461.2" y2="371.6" stroke="#9a8654" stroke-opacity="0.291" stroke-width="1.1"></line><line x1="431.4" y1="446.7" x2="395.6" y2="479.4" stroke="#9a8654" stroke-opacity="0.398" stroke-width="1.1"></line><line x1="448.8" y1="463.4" x2="398.2" y2="489.4" stroke="#9a8654" stroke-opacity="0.370" stroke-width="1.1"></line><line x1="448.8" y1="463.4" x2="429.1" y2="447.0" stroke="#9a8654" stroke-opacity="0.474" stroke-width="1.1"></line><line x1="448.8" y1="463.4" x2="361.4" y2="419.6" stroke="#9a8654" stroke-opacity="0.234" stroke-width="1.1"></line><line x1="448.8" y1="463.4" x2="415.7" y2="457.6" stroke="#9a8654" stroke-opacity="0.448" stroke-width="1.1"></line><line x1="448.8" y1="463.4" x2="354.4" y2="508.6" stroke="#9a8654" stroke-opacity="0.211" stroke-width="1.1"></line><line x1="448.8" y1="463.4" x2="366.9" y2="399.4" stroke="#9a8654" stroke-opacity="0.213" stroke-width="1.1"></line><line x1="448.8" y1="463.4" x2="318.3" y2="453.9" stroke="#9a8654" stroke-opacity="0.124" stroke-width="1.1"></line><line x1="448.8" y1="463.4" x2="453.0" y2="549.1" stroke="#9a8654" stroke-opacity="0.274" stroke-width="1.1"></line><line x1="448.8" y1="463.4" x2="405.9" y2="451.5" stroke="#9a8654" stroke-opacity="0.412" stroke-width="1.1"></line><line x1="448.8" y1="463.4" x2="467.3" y2="494.4" stroke="#9a8654" stroke-opacity="0.440" stroke-width="1.1"></line><line x1="448.8" y1="463.4" x2="445.6" y2="568.3" stroke="#9a8654" stroke-opacity="0.210" stroke-width="1.1"></line><line x1="448.8" y1="463.4" x2="542.5" y2="442.6" stroke="#9a8654" stroke-opacity="0.240" stroke-width="1.1"></line><line x1="448.8" y1="463.4" x2="461.2" y2="371.6" stroke="#9a8654" stroke-opacity="0.251" stroke-width="1.1"></line><line x1="448.8" y1="463.4" x2="395.6" y2="479.4" stroke="#9a8654" stroke-opacity="0.375" stroke-width="1.1"></line><line x1="398.2" y1="489.4" x2="429.1" y2="447.0" stroke="#9a8654" stroke-opacity="0.385" stroke-width="1.1"></line><line x1="398.2" y1="489.4" x2="361.4" y2="419.6" stroke="#8fa08c" stroke-opacity="0.297" stroke-width="0.8"></line><line x1="398.2" y1="489.4" x2="415.7" y2="457.6" stroke="#9a8654" stroke-opacity="0.439" stroke-width="1.1"></line><line x1="398.2" y1="489.4" x2="354.4" y2="508.6" stroke="#9a8654" stroke-opacity="0.400" stroke-width="1.1"></line><line x1="398.2" y1="489.4" x2="366.9" y2="399.4" stroke="#8fa08c" stroke-opacity="0.242" stroke-width="0.8"></line><line x1="398.2" y1="489.4" x2="318.3" y2="453.9" stroke="#8fa08c" stroke-opacity="0.268" stroke-width="0.8"></line><line x1="398.2" y1="489.4" x2="453.0" y2="549.1" stroke="#8fa08c" stroke-opacity="0.290" stroke-width="0.8"></line><line x1="398.2" y1="489.4" x2="405.9" y2="451.5" stroke="#9a8654" stroke-opacity="0.431" stroke-width="1.1"></line><line x1="398.2" y1="489.4" x2="343.4" y2="350.0" stroke="#9a8654" stroke-opacity="0.061" stroke-width="1.1"></line><line x1="398.2" y1="489.4" x2="467.3" y2="494.4" stroke="#9a8654" stroke-opacity="0.329" stroke-width="1.1"></line><line x1="398.2" y1="489.4" x2="253.0" y2="524.3" stroke="#8fa08c" stroke-opacity="0.062" stroke-width="0.8"></line><line x1="398.2" y1="489.4" x2="445.6" y2="568.3" stroke="#8fa08c" stroke-opacity="0.253" stroke-width="0.8"></line><line x1="398.2" y1="489.4" x2="461.2" y2="371.6" stroke="#9a8654" stroke-opacity="0.115" stroke-width="1.1"></line><line x1="398.2" y1="489.4" x2="395.6" y2="479.4" stroke="#8fa08c" stroke-opacity="0.525" stroke-width="0.8"></line><line x1="429.1" y1="447.0" x2="361.4" y2="419.6" stroke="#9a8654" stroke-opacity="0.317" stroke-width="1.1"></line><line x1="429.1" y1="447.0" x2="415.7" y2="457.6" stroke="#9a8654" stroke-opacity="0.503" stroke-width="1.1"></line><line x1="429.1" y1="447.0" x2="354.4" y2="508.6" stroke="#9a8654" stroke-opacity="0.237" stroke-width="1.1"></line><line x1="429.1" y1="447.0" x2="366.9" y2="399.4" stroke="#9a8654" stroke-opacity="0.299" stroke-width="1.1"></line><line x1="429.1" y1="447.0" x2="318.3" y2="453.9" stroke="#9a8654" stroke-opacity="0.190" stroke-width="1.1"></line><line x1="429.1" y1="447.0" x2="453.0" y2="549.1" stroke="#9a8654" stroke-opacity="0.211" stroke-width="1.1"></line><line x1="429.1" y1="447.0" x2="405.9" y2="451.5" stroke="#9a8654" stroke-opacity="0.481" stroke-width="1.1"></line><line x1="429.1" y1="447.0" x2="343.4" y2="350.0" stroke="#9a8654" stroke-opacity="0.128" stroke-width="1.1"></line><line x1="429.1" y1="447.0" x2="467.3" y2="494.4" stroke="#9a8654" stroke-opacity="0.357" stroke-width="1.1"></line><line x1="429.1" y1="447.0" x2="445.6" y2="568.3" stroke="#9a8654" stroke-opacity="0.152" stroke-width="1.1"></line><line x1="429.1" y1="447.0" x2="542.5" y2="442.6" stroke="#9a8654" stroke-opacity="0.182" stroke-width="1.1"></line><line x1="429.1" y1="447.0" x2="461.2" y2="371.6" stroke="#9a8654" stroke-opacity="0.287" stroke-width="1.1"></line><line x1="429.1" y1="447.0" x2="395.6" y2="479.4" stroke="#9a8654" stroke-opacity="0.405" stroke-width="1.1"></line><line x1="266.8" y1="396.3" x2="361.4" y2="419.6" stroke="#8fa08c" stroke-opacity="0.235" stroke-width="0.8"></line><line x1="266.8" y1="396.3" x2="354.4" y2="508.6" stroke="#9a8654" stroke-opacity="0.085" stroke-width="1.1"></line><line x1="266.8" y1="396.3" x2="366.9" y2="399.4" stroke="#8fa08c" stroke-opacity="0.226" stroke-width="0.8"></line><line x1="266.8" y1="396.3" x2="318.3" y2="453.9" stroke="#8fa08c" stroke-opacity="0.302" stroke-width="0.8"></line><line x1="266.8" y1="396.3" x2="233.4" y2="383.1" stroke="#8fa08c" stroke-opacity="0.440" stroke-width="0.8"></line><line x1="266.8" y1="396.3" x2="405.9" y2="451.5" stroke="#9a8654" stroke-opacity="0.061" stroke-width="1.1"></line><line x1="266.8" y1="396.3" x2="343.4" y2="350.0" stroke="#9a8654" stroke-opacity="0.262" stroke-width="1.1"></line><line x1="266.8" y1="396.3" x2="253.0" y2="524.3" stroke="#8fa08c" stroke-opacity="0.131" stroke-width="0.8"></line><line x1="266.8" y1="396.3" x2="201.6" y2="462.3" stroke="#8fa08c" stroke-opacity="0.251" stroke-width="0.8"></line><line x1="361.4" y1="419.6" x2="415.7" y2="457.6" stroke="#9a8654" stroke-opacity="0.339" stroke-width="1.1"></line><line x1="361.4" y1="419.6" x2="354.4" y2="508.6" stroke="#9a8654" stroke-opacity="0.262" stroke-width="1.1"></line><line x1="361.4" y1="419.6" x2="366.9" y2="399.4" stroke="#8fa08c" stroke-opacity="0.490" stroke-width="0.8"></line><line x1="361.4" y1="419.6" x2="318.3" y2="453.9" stroke="#8fa08c" stroke-opacity="0.376" stroke-width="0.8"></line><line x1="361.4" y1="419.6" x2="233.4" y2="383.1" stroke="#8fa08c" stroke-opacity="0.116" stroke-width="0.8"></line><line x1="361.4" y1="419.6" x2="405.9" y2="451.5" stroke="#9a8654" stroke-opacity="0.377" stroke-width="1.1"></line><line x1="361.4" y1="419.6" x2="343.4" y2="350.0" stroke="#9a8654" stroke-opacity="0.320" stroke-width="1.1"></line><line x1="361.4" y1="419.6" x2="467.3" y2="494.4" stroke="#9a8654" stroke-opacity="0.128" stroke-width="1.1"></line><line x1="361.4" y1="419.6" x2="461.2" y2="371.6" stroke="#9a8654" stroke-opacity="0.191" stroke-width="1.1"></line><line x1="361.4" y1="419.6" x2="395.6" y2="479.4" stroke="#8fa08c" stroke-opacity="0.331" stroke-width="0.8"></line><line x1="415.7" y1="457.6" x2="354.4" y2="508.6" stroke="#9a8654" stroke-opacity="0.294" stroke-width="1.1"></line><line x1="415.7" y1="457.6" x2="366.9" y2="399.4" stroke="#9a8654" stroke-opacity="0.307" stroke-width="1.1"></line><line x1="415.7" y1="457.6" x2="318.3" y2="453.9" stroke="#9a8654" stroke-opacity="0.235" stroke-width="1.1"></line><line x1="415.7" y1="457.6" x2="453.0" y2="549.1" stroke="#9a8654" stroke-opacity="0.231" stroke-width="1.1"></line><line x1="415.7" y1="457.6" x2="405.9" y2="451.5" stroke="#9a8654" stroke-opacity="0.522" stroke-width="1.1"></line><line x1="415.7" y1="457.6" x2="343.4" y2="350.0" stroke="#9a8654" stroke-opacity="0.128" stroke-width="1.1"></line><line x1="415.7" y1="457.6" x2="467.3" y2="494.4" stroke="#9a8654" stroke-opacity="0.349" stroke-width="1.1"></line><line x1="415.7" y1="457.6" x2="445.6" y2="568.3" stroke="#9a8654" stroke-opacity="0.178" stroke-width="1.1"></line><line x1="415.7" y1="457.6" x2="542.5" y2="442.6" stroke="#9a8654" stroke-opacity="0.135" stroke-width="1.1"></line><line x1="415.7" y1="457.6" x2="461.2" y2="371.6" stroke="#9a8654" stroke-opacity="0.236" stroke-width="1.1"></line><line x1="415.7" y1="457.6" x2="395.6" y2="479.4" stroke="#9a8654" stroke-opacity="0.461" stroke-width="1.1"></line><line x1="354.4" y1="508.6" x2="366.9" y2="399.4" stroke="#9a8654" stroke-opacity="0.194" stroke-width="1.1"></line><line x1="354.4" y1="508.6" x2="318.3" y2="453.9" stroke="#9a8654" stroke-opacity="0.342" stroke-width="1.1"></line><line x1="354.4" y1="508.6" x2="453.0" y2="549.1" stroke="#9a8654" stroke-opacity="0.205" stroke-width="1.1"></line><line x1="354.4" y1="508.6" x2="405.9" y2="451.5" stroke="#9a8654" stroke-opacity="0.303" stroke-width="1.1"></line><line x1="354.4" y1="508.6" x2="467.3" y2="494.4" stroke="#9a8654" stroke-opacity="0.181" stroke-width="1.1"></line><line x1="354.4" y1="508.6" x2="253.0" y2="524.3" stroke="#9a8654" stroke-opacity="0.218" stroke-width="1.1"></line><line x1="354.4" y1="508.6" x2="445.6" y2="568.3" stroke="#9a8654" stroke-opacity="0.197" stroke-width="1.1"></line><line x1="354.4" y1="508.6" x2="284.8" y2="617.9" stroke="#9a8654" stroke-opacity="0.128" stroke-width="1.1"></line><line x1="354.4" y1="508.6" x2="395.6" y2="479.4" stroke="#9a8654" stroke-opacity="0.392" stroke-width="1.1"></line><line x1="546.9" y1="300.4" x2="514.5" y2="298.6" stroke="#8fa08c" stroke-opacity="0.452" stroke-width="0.8"></line><line x1="546.9" y1="300.4" x2="542.5" y2="442.6" stroke="#9a8654" stroke-opacity="0.086" stroke-width="1.1"></line><line x1="546.9" y1="300.4" x2="478.7" y2="279.3" stroke="#9a8654" stroke-opacity="0.322" stroke-width="1.1"></line><line x1="546.9" y1="300.4" x2="643.3" y2="345.2" stroke="#8fa08c" stroke-opacity="0.206" stroke-width="0.8"></line><line x1="546.9" y1="300.4" x2="461.2" y2="371.6" stroke="#9a8654" stroke-opacity="0.189" stroke-width="1.1"></line><line x1="546.9" y1="300.4" x2="572.1" y2="337.1" stroke="#9a8654" stroke-opacity="0.412" stroke-width="1.1"></line><line x1="366.9" y1="399.4" x2="318.3" y2="453.9" stroke="#8fa08c" stroke-opacity="0.317" stroke-width="0.8"></line><line x1="366.9" y1="399.4" x2="233.4" y2="383.1" stroke="#8fa08c" stroke-opacity="0.112" stroke-width="0.8"></line><line x1="366.9" y1="399.4" x2="405.9" y2="451.5" stroke="#9a8654" stroke-opacity="0.343" stroke-width="1.1"></line><line x1="366.9" y1="399.4" x2="343.4" y2="350.0" stroke="#9a8654" stroke-opacity="0.378" stroke-width="1.1"></line><line x1="366.9" y1="399.4" x2="467.3" y2="494.4" stroke="#9a8654" stroke-opacity="0.099" stroke-width="1.1"></line><line x1="366.9" y1="399.4" x2="461.2" y2="371.6" stroke="#9a8654" stroke-opacity="0.232" stroke-width="1.1"></line><line x1="366.9" y1="399.4" x2="395.6" y2="479.4" stroke="#8fa08c" stroke-opacity="0.277" stroke-width="0.8"></line><line x1="318.3" y1="453.9" x2="233.4" y2="383.1" stroke="#8fa08c" stroke-opacity="0.191" stroke-width="0.8"></line><line x1="318.3" y1="453.9" x2="405.9" y2="451.5" stroke="#9a8654" stroke-opacity="0.268" stroke-width="1.1"></line><line x1="318.3" y1="453.9" x2="343.4" y2="350.0" stroke="#9a8654" stroke-opacity="0.203" stroke-width="1.1"></line><line x1="318.3" y1="453.9" x2="253.0" y2="524.3" stroke="#8fa08c" stroke-opacity="0.240" stroke-width="0.8"></line><line x1="318.3" y1="453.9" x2="395.6" y2="479.4" stroke="#8fa08c" stroke-opacity="0.289" stroke-width="0.8"></line><line x1="318.3" y1="453.9" x2="201.6" y2="462.3" stroke="#8fa08c" stroke-opacity="0.170" stroke-width="0.8"></line><line x1="233.4" y1="383.1" x2="343.4" y2="350.0" stroke="#9a8654" stroke-opacity="0.177" stroke-width="1.1"></line><line x1="233.4" y1="383.1" x2="253.0" y2="524.3" stroke="#8fa08c" stroke-opacity="0.085" stroke-width="0.8"></line><line x1="233.4" y1="383.1" x2="201.6" y2="462.3" stroke="#8fa08c" stroke-opacity="0.276" stroke-width="0.8"></line><line x1="453.0" y1="549.1" x2="405.9" y2="451.5" stroke="#9a8654" stroke-opacity="0.199" stroke-width="1.1"></line><line x1="453.0" y1="549.1" x2="467.3" y2="494.4" stroke="#9a8654" stroke-opacity="0.372" stroke-width="1.1"></line><line x1="453.0" y1="549.1" x2="445.6" y2="568.3" stroke="#8fa08c" stroke-opacity="0.491" stroke-width="0.8"></line><line x1="453.0" y1="549.1" x2="542.5" y2="442.6" stroke="#9a8654" stroke-opacity="0.096" stroke-width="1.1"></line><line x1="453.0" y1="549.1" x2="395.6" y2="479.4" stroke="#8fa08c" stroke-opacity="0.259" stroke-width="0.8"></line><line x1="514.5" y1="298.6" x2="542.5" y2="442.6" stroke="#9a8654" stroke-opacity="0.071" stroke-width="1.1"></line><line x1="514.5" y1="298.6" x2="478.7" y2="279.3" stroke="#9a8654" stroke-opacity="0.425" stroke-width="1.1"></line><line x1="514.5" y1="298.6" x2="643.3" y2="345.2" stroke="#8fa08c" stroke-opacity="0.103" stroke-width="0.8"></line><line x1="514.5" y1="298.6" x2="461.2" y2="371.6" stroke="#9a8654" stroke-opacity="0.259" stroke-width="1.1"></line><line x1="514.5" y1="298.6" x2="572.1" y2="337.1" stroke="#9a8654" stroke-opacity="0.329" stroke-width="1.1"></line><line x1="405.9" y1="451.5" x2="343.4" y2="350.0" stroke="#9a8654" stroke-opacity="0.162" stroke-width="1.1"></line><line x1="405.9" y1="451.5" x2="467.3" y2="494.4" stroke="#9a8654" stroke-opacity="0.310" stroke-width="1.1"></line><line x1="405.9" y1="451.5" x2="445.6" y2="568.3" stroke="#9a8654" stroke-opacity="0.149" stroke-width="1.1"></line><line x1="405.9" y1="451.5" x2="542.5" y2="442.6" stroke="#9a8654" stroke-opacity="0.104" stroke-width="1.1"></line><line x1="405.9" y1="451.5" x2="461.2" y2="371.6" stroke="#9a8654" stroke-opacity="0.236" stroke-width="1.1"></line><line x1="405.9" y1="451.5" x2="395.6" y2="479.4" stroke="#9a8654" stroke-opacity="0.461" stroke-width="1.1"></line><line x1="343.4" y1="350.0" x2="461.2" y2="371.6" stroke="#9a8654" stroke-opacity="0.161" stroke-width="1.1"></line><line x1="343.4" y1="350.0" x2="395.6" y2="479.4" stroke="#9a8654" stroke-opacity="0.095" stroke-width="1.1"></line><line x1="467.3" y1="494.4" x2="445.6" y2="568.3" stroke="#9a8654" stroke-opacity="0.303" stroke-width="1.1"></line><line x1="467.3" y1="494.4" x2="542.5" y2="442.6" stroke="#9a8654" stroke-opacity="0.256" stroke-width="1.1"></line><line x1="467.3" y1="494.4" x2="461.2" y2="371.6" stroke="#9a8654" stroke-opacity="0.150" stroke-width="1.1"></line><line x1="467.3" y1="494.4" x2="395.6" y2="479.4" stroke="#9a8654" stroke-opacity="0.316" stroke-width="1.1"></line><line x1="253.0" y1="524.3" x2="216.7" y2="592.4" stroke="#9a8654" stroke-opacity="0.303" stroke-width="1.1"></line><line x1="253.0" y1="524.3" x2="284.8" y2="617.9" stroke="#9a8654" stroke-opacity="0.230" stroke-width="1.1"></line><line x1="253.0" y1="524.3" x2="395.6" y2="479.4" stroke="#8fa08c" stroke-opacity="0.062" stroke-width="0.8"></line><line x1="253.0" y1="524.3" x2="201.6" y2="462.3" stroke="#8fa08c" stroke-opacity="0.292" stroke-width="0.8"></line><line x1="445.6" y1="568.3" x2="395.6" y2="479.4" stroke="#8fa08c" stroke-opacity="0.220" stroke-width="0.8"></line><line x1="542.5" y1="442.6" x2="643.3" y2="345.2" stroke="#9a8654" stroke-opacity="0.093" stroke-width="1.1"></line><line x1="542.5" y1="442.6" x2="461.2" y2="371.6" stroke="#9a8654" stroke-opacity="0.200" stroke-width="1.1"></line><line x1="542.5" y1="442.6" x2="572.1" y2="337.1" stroke="#9a8654" stroke-opacity="0.195" stroke-width="1.1"></line><line x1="478.7" y1="279.3" x2="461.2" y2="371.6" stroke="#9a8654" stroke-opacity="0.247" stroke-width="1.1"></line><line x1="478.7" y1="279.3" x2="572.1" y2="337.1" stroke="#9a8654" stroke-opacity="0.194" stroke-width="1.1"></line><line x1="643.3" y1="345.2" x2="572.1" y2="337.1" stroke="#9a8654" stroke-opacity="0.321" stroke-width="1.1"></line><line x1="643.3" y1="345.2" x2="705.1" y2="365.1" stroke="#9a8654" stroke-opacity="0.344" stroke-width="1.1"></line><line x1="216.7" y1="592.4" x2="284.8" y2="617.9" stroke="#9a8654" stroke-opacity="0.318" stroke-width="1.1"></line><line x1="216.7" y1="592.4" x2="201.6" y2="462.3" stroke="#9a8654" stroke-opacity="0.123" stroke-width="1.1"></line><line x1="717.6" y1="616.7" x2="728.3" y2="622.6" stroke="#8fa08c" stroke-opacity="0.519" stroke-width="0.8"></line><line x1="461.2" y1="371.6" x2="395.6" y2="479.4" stroke="#9a8654" stroke-opacity="0.139" stroke-width="1.1"></line><line x1="461.2" y1="371.6" x2="572.1" y2="337.1" stroke="#9a8654" stroke-opacity="0.173" stroke-width="1.1"></line><line x1="572.1" y1="337.1" x2="705.1" y2="365.1" stroke="#9a8654" stroke-opacity="0.107" stroke-width="1.1"></line></g><circle cx="393.3" cy="453.0" r="4.1" fill="#eef0e6" fill-opacity="0.78"></circle><circle cx="344.6" cy="600.6" r="10.5" fill="url(#brassGlow)"></circle><circle cx="344.6" cy="600.6" r="3.3" fill="#d8bf83" fill-opacity="0.95"></circle><circle cx="605.8" cy="345.1" r="13.5" fill="url(#brassGlow)"></circle><circle cx="605.8" cy="345.1" r="4.2" fill="#d8bf83" fill-opacity="0.95"></circle><circle cx="414.2" cy="549.0" r="3.8" fill="#eef0e6" fill-opacity="0.78"></circle><circle cx="309.9" cy="515.8" r="2.4" fill="#eef0e6" fill-opacity="0.78"></circle><circle cx="557.3" cy="428.6" r="15.3" fill="url(#brassGlow)"></circle><circle cx="557.3" cy="428.6" r="4.8" fill="#d8bf83" fill-opacity="0.95"></circle><circle cx="633.9" cy="393.0" r="10.2" fill="url(#brassGlow)"></circle><circle cx="633.9" cy="393.0" r="3.2" fill="#d8bf83" fill-opacity="0.95"></circle><circle cx="206.3" cy="463.2" r="3.5" fill="#eef0e6" fill-opacity="0.78"></circle><circle cx="388.3" cy="389.8" r="3.4" fill="#eef0e6" fill-opacity="0.78"></circle><circle cx="444.9" cy="374.9" r="3.0" fill="#eef0e6" fill-opacity="0.78"></circle><circle cx="569.4" cy="430.6" r="2.8" fill="#eef0e6" fill-opacity="0.78"></circle><circle cx="472.9" cy="465.6" r="4.1" fill="#eef0e6" fill-opacity="0.78"></circle><circle cx="431.4" cy="446.7" r="8.6" fill="url(#brassGlow)"></circle><circle cx="431.4" cy="446.7" r="2.7" fill="#d8bf83" fill-opacity="0.95"></circle><circle cx="448.8" cy="463.4" r="13.9" fill="url(#brassGlow)"></circle><circle cx="448.8" cy="463.4" r="4.3" fill="#d8bf83" fill-opacity="0.95"></circle><circle cx="398.2" cy="489.4" r="3.5" fill="#eef0e6" fill-opacity="0.78"></circle><circle cx="429.1" cy="447.0" r="14.3" fill="url(#brassGlow)"></circle><circle cx="429.1" cy="447.0" r="4.5" fill="#d8bf83" fill-opacity="0.95"></circle><circle cx="266.8" cy="396.3" r="4.5" fill="#eef0e6" fill-opacity="0.78"></circle><circle cx="361.4" cy="419.6" r="2.9" fill="#eef0e6" fill-opacity="0.78"></circle><circle cx="415.7" cy="457.6" r="13.4" fill="url(#brassGlow)"></circle><circle cx="415.7" cy="457.6" r="4.2" fill="#d8bf83" fill-opacity="0.95"></circle><circle cx="354.4" cy="508.6" r="10.7" fill="url(#brassGlow)"></circle><circle cx="354.4" cy="508.6" r="3.3" fill="#d8bf83" fill-opacity="0.95"></circle><circle cx="546.9" cy="300.4" r="2.9" fill="#eef0e6" fill-opacity="0.78"></circle><circle cx="366.9" cy="399.4" r="3.6" fill="#eef0e6" fill-opacity="0.78"></circle><circle cx="318.3" cy="453.9" r="4.3" fill="#eef0e6" fill-opacity="0.78"></circle><circle cx="233.4" cy="383.1" r="2.7" fill="#eef0e6" fill-opacity="0.78"></circle><circle cx="453.0" cy="549.1" r="1.7" fill="#eef0e6" fill-opacity="0.78"></circle><circle cx="514.5" cy="298.6" r="2.2" fill="#eef0e6" fill-opacity="0.78"></circle><circle cx="405.9" cy="451.5" r="14.7" fill="url(#brassGlow)"></circle><circle cx="405.9" cy="451.5" r="4.6" fill="#d8bf83" fill-opacity="0.95"></circle><circle cx="343.4" cy="350.0" r="13.4" fill="url(#brassGlow)"></circle><circle cx="343.4" cy="350.0" r="4.2" fill="#d8bf83" fill-opacity="0.95"></circle><circle cx="467.3" cy="494.4" r="12.6" fill="url(#brassGlow)"></circle><circle cx="467.3" cy="494.4" r="3.9" fill="#d8bf83" fill-opacity="0.95"></circle><circle cx="253.0" cy="524.3" r="2.4" fill="#eef0e6" fill-opacity="0.78"></circle><circle cx="445.6" cy="568.3" r="4.1" fill="#eef0e6" fill-opacity="0.78"></circle><circle cx="542.5" cy="442.6" r="12.3" fill="url(#brassGlow)"></circle><circle cx="542.5" cy="442.6" r="3.8" fill="#d8bf83" fill-opacity="0.95"></circle><circle cx="478.7" cy="279.3" r="9.7" fill="url(#brassGlow)"></circle><circle cx="478.7" cy="279.3" r="3.0" fill="#d8bf83" fill-opacity="0.95"></circle><circle cx="643.3" cy="345.2" r="3.4" fill="#eef0e6" fill-opacity="0.78"></circle><circle cx="216.7" cy="592.4" r="10.4" fill="url(#brassGlow)"></circle><circle cx="216.7" cy="592.4" r="3.2" fill="#d8bf83" fill-opacity="0.95"></circle><circle cx="717.6" cy="616.7" r="4.7" fill="#eef0e6" fill-opacity="0.78"></circle><circle cx="500.5" cy="737.7" r="5.0" fill="#eef0e6" fill-opacity="0.78"></circle><circle cx="461.2" cy="371.6" r="9.7" fill="url(#brassGlow)"></circle><circle cx="461.2" cy="371.6" r="3.0" fill="#d8bf83" fill-opacity="0.95"></circle><circle cx="284.8" cy="617.9" r="5.3" fill="url(#brassGlow)"></circle><circle cx="284.8" cy="617.9" r="1.7" fill="#d8bf83" fill-opacity="0.95"></circle><circle cx="141.1" cy="724.9" r="12.9" fill="url(#brassGlow)"></circle><circle cx="141.1" cy="724.9" r="4.0" fill="#d8bf83" fill-opacity="0.95"></circle><circle cx="395.6" cy="479.4" r="3.9" fill="#eef0e6" fill-opacity="0.78"></circle><circle cx="201.6" cy="462.3" r="1.9" fill="#eef0e6" fill-opacity="0.78"></circle><circle cx="572.1" cy="337.1" r="7.0" fill="url(#brassGlow)"></circle><circle cx="572.1" cy="337.1" r="2.2" fill="#d8bf83" fill-opacity="0.95"></circle><circle cx="308.0" cy="182.2" r="14.1" fill="url(#brassGlow)"></circle><circle cx="308.0" cy="182.2" r="4.4" fill="#d8bf83" fill-opacity="0.95"></circle><circle cx="705.1" cy="365.1" r="7.8" fill="url(#brassGlow)"></circle><circle cx="705.1" cy="365.1" r="2.4" fill="#d8bf83" fill-opacity="0.95"></circle><circle cx="728.3" cy="622.6" r="3.4" fill="#eef0e6" fill-opacity="0.78"></circle><g stroke="#9a8654" stroke-opacity="0.5" fill="none" stroke-width="2" stroke-linecap="round" stroke-linejoin="round"><path d="M 90 800 L 100 800 L 108 770 L 116 800 L 134 800 L 142 770 L 150 800 L 168 800 L 176 770 L 184 800 L 248 800 L 256 770 L 264 800 L 282 800 L 290 770 L 298 800 L 316 800 L 324 770 L 332 800 L 396 800 L 404 770 L 412 800 L 430 800 L 438 770 L 446 800 L 464 800 L 472 770 L 480 800 L 544 800 L 552 770 L 560 800 L 578 800 L 586 770 L 594 800 L 612 800 L 620 770 L 628 800 L 692 800 L 700 770 L 708 800 L 726 800 L 734 770 L 742 800 L 760 800 L 768 770 L 776 800"></path></g></svg>