<svg xmlns="http://www.w3.org/2000/svg" viewBox="0 0 1200 900" width="1200" height="900"><defs><radialGradient id="bg" cx="44%" cy="42%" r="80%"><stop offset="0%" stop-color="#26312a"></stop><stop offset="55%" stop-color="#202a22"></stop><stop offset="100%" stop-color="#161f19"></stop></radialGradient><radialGradient id="brassGlow" cx="50%" cy="50%" r="50%"><stop offset="0%" stop-color="#c9ad6a" stop-opacity="0.9"></stop><stop offset="60%" stop-color="#9a8654" stop-opacity="0.35"></stop><stop offset="100%" stop-color="#9a8654" stop-opacity="0"></stop></radialGradient></defs><rect width="1200" height="900" fill="url(#bg)"></rect><g stroke="#eef0e6" stroke-opacity="0.035" fill="none"><circle cx="935" cy="140" r="110"></circle><circle cx="935" cy="140" r="202"></circle><circle cx="935" cy="140" r="294"></circle><circle cx="935" cy="140" r="386"></circle><circle cx="935" cy="140" r="478"></circle><circle cx="935" cy="140" r="570"></circle><circle cx="935" cy="140" r="662"></circle><circle cx="935" cy="140" r="754"></circle><circle cx="935" cy="140" r="846"></circle><circle cx="935" cy="140" r="938"></circle><circle cx="935" cy="140" r="1030"></circle><circle cx="935" cy="140" r="1122"></circle><circle cx="935" cy="140" r="1214"></circle></g><path d="M 831.5 356.0 Q 835 310 817.5 275.0 Q 800 240 761.0 213.0 Q 722 186 667.0 169.0 Q 612 152 552.0 150.0 Q 492 148 437.0 160.0 Q 382 172 338.0 199.0 Q 294 226 266.0 266.0 Q 238 306 227.0 352.0 Q 216 398 220.0 442.0 Q 224 486 243.0 519.0 Q 262 552 292.0 570.0 Q 322 588 333.0 600.0 Q 344 612 371.0 632.0 Q 398 652 435.0 656.0 Q 472 660 494.0 650.0 Q 516 640 526.0 654.0 Q 536 668 551.0 666.0 Q 566 664 581.0 638.0 Q 596 612 632.0 595.0 Q 668 578 704.0 559.0 Q 740 540 768.0 513.0 Q 796 486 812.0 444.0 Q 828 402 831.5 356.0 Z" fill="#eef0e6" fill-opacity="0.025" stroke="#aab19f" stroke-opacity="0.35" stroke-width="1.6" stroke-dasharray="1 7" stroke-linecap="round"></path><g fill="none" stroke-linecap="round"><circle cx="905" cy="170" r="64" stroke="#9a8654" stroke-opacity="0.550" stroke-width="2.20" stroke-dasharray="1 9"></circle><circle cx="905" cy="170" r="112" stroke="#9a8654" stroke-opacity="0.475" stroke-width="2.02" stroke-dasharray="2 10"></circle><circle cx="905" cy="170" r="160" stroke="#9a8654" stroke-opacity="0.400" stroke-width="1.84" stroke-dasharray="1 9"></circle><circle cx="905" cy="170" r="208" stroke="#9a8654" stroke-opacity="0.325" stroke-width="1.66" stroke-dasharray="2 10"></circle><circle cx="905" cy="170" r="256" stroke="#9a8654" stroke-opacity="0.250" stroke-width="1.48" stroke-dasharray="1 9"></circle><circle cx="905" cy="170" r="304" stroke="#9a8654" stroke-opacity="0.175" stroke-width="1.30" stroke-dasharray="2 10"></circle></g><g transform="translate(905,170)"><circle r="32" fill="#eef0e6" fill-opacity="0.08" stroke="#eef0e6" stroke-opacity="0.5" stroke-width="2"></circle><circle r="19" fill="none" stroke="#c9ad6a" stroke-opacity="0.85" stroke-width="3"></circle><circle r="7.5" fill="#c9ad6a"></circle></g><g stroke-linecap="round"><line x1="242.1" y1="162.4" x2="267.3" y2="166.6" stroke="#8fa08c" stroke-opacity="0.426" stroke-width="0.75"></line><line x1="242.1" y1="162.4" x2="340.4" y2="169.9" stroke="#8fa08c" stroke-opacity="0.102" stroke-width="0.75"></line><line x1="242.1" y1="162.4" x2="275.7" y2="206.9" stroke="#8fa08c" stroke-opacity="0.292" stroke-width="0.75"></line><line x1="242.1" y1="162.4" x2="329.7" y2="194.0" stroke="#9a8654" stroke-opacity="0.126" stroke-width="1.05"></line><line x1="267.3" y1="166.6" x2="340.4" y2="169.9" stroke="#8fa08c" stroke-opacity="0.215" stroke-width="0.75"></line><line x1="267.3" y1="166.6" x2="275.7" y2="206.9" stroke="#8fa08c" stroke-opacity="0.357" stroke-width="0.75"></line><line x1="267.3" y1="166.6" x2="329.7" y2="194.0" stroke="#9a8654" stroke-opacity="0.237" stroke-width="1.05"></line><line x1="340.4" y1="169.9" x2="423.5" y2="151.2" stroke="#8fa08c" stroke-opacity="0.162" stroke-width="0.75"></line><line x1="340.4" y1="169.9" x2="275.7" y2="206.9" stroke="#8fa08c" stroke-opacity="0.209" stroke-width="0.75"></line><line x1="340.4" y1="169.9" x2="329.7" y2="194.0" stroke="#9a8654" stroke-opacity="0.423" stroke-width="1.05"></line><line x1="340.4" y1="169.9" x2="373.3" y2="208.9" stroke="#9a8654" stroke-opacity="0.313" stroke-width="1.05"></line><line x1="340.4" y1="169.9" x2="338.6" y2="254.3" stroke="#8fa08c" stroke-opacity="0.165" stroke-width="0.75"></line><line x1="423.5" y1="151.2" x2="504.6" y2="173.6" stroke="#8fa08c" stroke-opacity="0.166" stroke-width="0.75"></line><line x1="423.5" y1="151.2" x2="329.7" y2="194.0" stroke="#9a8654" stroke-opacity="0.082" stroke-width="1.05"></line><line x1="423.5" y1="151.2" x2="373.3" y2="208.9" stroke="#9a8654" stroke-opacity="0.200" stroke-width="1.05"></line><line x1="423.5" y1="151.2" x2="450.6" y2="246.0" stroke="#8fa08c" stroke-opacity="0.102" stroke-width="0.75"></line><line x1="504.6" y1="173.6" x2="561.7" y2="177.6" stroke="#9a8654" stroke-opacity="0.286" stroke-width="1.05"></line><line x1="504.6" y1="173.6" x2="612.3" y2="173.2" stroke="#8fa08c" stroke-opacity="0.061" stroke-width="0.75"></line><line x1="504.6" y1="173.6" x2="547.8" y2="216.3" stroke="#8fa08c" stroke-opacity="0.270" stroke-width="0.75"></line><line x1="504.6" y1="173.6" x2="450.6" y2="246.0" stroke="#8fa08c" stroke-opacity="0.139" stroke-width="0.75"></line><line x1="561.7" y1="177.6" x2="612.3" y2="173.2" stroke="#9a8654" stroke-opacity="0.314" stroke-width="1.05"></line><line x1="561.7" y1="177.6" x2="547.8" y2="216.3" stroke="#9a8654" stroke-opacity="0.357" stroke-width="1.05"></line><line x1="561.7" y1="177.6" x2="597.6" y2="229.4" stroke="#9a8654" stroke-opacity="0.260" stroke-width="1.05"></line><line x1="561.7" y1="177.6" x2="645.1" y2="192.5" stroke="#9a8654" stroke-opacity="0.164" stroke-width="1.05"></line><line x1="612.3" y1="173.2" x2="547.8" y2="216.3" stroke="#8fa08c" stroke-opacity="0.195" stroke-width="0.75"></line><line x1="612.3" y1="173.2" x2="597.6" y2="229.4" stroke="#8fa08c" stroke-opacity="0.282" stroke-width="0.75"></line><line x1="612.3" y1="173.2" x2="645.1" y2="192.5" stroke="#8fa08c" stroke-opacity="0.371" stroke-width="0.75"></line><line x1="612.3" y1="173.2" x2="714.3" y2="204.1" stroke="#9a8654" stroke-opacity="0.066" stroke-width="1.05"></line><line x1="612.3" y1="173.2" x2="655.2" y2="247.4" stroke="#9a8654" stroke-opacity="0.159" stroke-width="1.05"></line><line x1="275.7" y1="206.9" x2="329.7" y2="194.0" stroke="#9a8654" stroke-opacity="0.294" stroke-width="1.05"></line><line x1="275.7" y1="206.9" x2="373.3" y2="208.9" stroke="#9a8654" stroke-opacity="0.107" stroke-width="1.05"></line><line x1="275.7" y1="206.9" x2="282.9" y2="276.7" stroke="#8fa08c" stroke-opacity="0.228" stroke-width="0.75"></line><line x1="275.7" y1="206.9" x2="338.6" y2="254.3" stroke="#8fa08c" stroke-opacity="0.190" stroke-width="0.75"></line><line x1="329.7" y1="194.0" x2="373.3" y2="208.9" stroke="#9a8654" stroke-opacity="0.335" stroke-width="1.05"></line><line x1="329.7" y1="194.0" x2="282.9" y2="276.7" stroke="#9a8654" stroke-opacity="0.118" stroke-width="1.05"></line><line x1="329.7" y1="194.0" x2="338.6" y2="254.3" stroke="#9a8654" stroke-opacity="0.269" stroke-width="1.05"></line><line x1="329.7" y1="194.0" x2="386.2" y2="276.2" stroke="#9a8654" stroke-opacity="0.097" stroke-width="1.05"></line><line x1="373.3" y1="208.9" x2="338.6" y2="254.3" stroke="#9a8654" stroke-opacity="0.286" stroke-width="1.05"></line><line x1="373.3" y1="208.9" x2="386.2" y2="276.2" stroke="#9a8654" stroke-opacity="0.235" stroke-width="1.05"></line><line x1="373.3" y1="208.9" x2="450.6" y2="246.0" stroke="#9a8654" stroke-opacity="0.159" stroke-width="1.05"></line><line x1="547.8" y1="216.3" x2="597.6" y2="229.4" stroke="#8fa08c" stroke-opacity="0.311" stroke-width="0.75"></line><line x1="547.8" y1="216.3" x2="645.1" y2="192.5" stroke="#8fa08c" stroke-opacity="0.095" stroke-width="0.75"></line><line x1="547.8" y1="216.3" x2="450.6" y2="246.0" stroke="#8fa08c" stroke-opacity="0.088" stroke-width="0.75"></line><line x1="597.6" y1="229.4" x2="645.1" y2="192.5" stroke="#8fa08c" stroke-opacity="0.273" stroke-width="0.75"></line><line x1="597.6" y1="229.4" x2="655.2" y2="247.4" stroke="#9a8654" stroke-opacity="0.272" stroke-width="1.05"></line><line x1="597.6" y1="229.4" x2="687.4" y2="268.5" stroke="#8fa08c" stroke-opacity="0.105" stroke-width="0.75"></line><line x1="597.6" y1="229.4" x2="601.5" y2="312.0" stroke="#8fa08c" stroke-opacity="0.172" stroke-width="0.75"></line><line x1="597.6" y1="229.4" x2="651.6" y2="310.5" stroke="#8fa08c" stroke-opacity="0.107" stroke-width="0.75"></line><line x1="645.1" y1="192.5" x2="714.3" y2="204.1" stroke="#9a8654" stroke-opacity="0.228" stroke-width="1.05"></line><line x1="645.1" y1="192.5" x2="655.2" y2="247.4" stroke="#9a8654" stroke-opacity="0.292" stroke-width="1.05"></line><line x1="645.1" y1="192.5" x2="687.4" y2="268.5" stroke="#8fa08c" stroke-opacity="0.153" stroke-width="0.75"></line><line x1="714.3" y1="204.1" x2="655.2" y2="247.4" stroke="#9a8654" stroke-opacity="0.214" stroke-width="1.05"></line><line x1="714.3" y1="204.1" x2="687.4" y2="268.5" stroke="#9a8654" stroke-opacity="0.230" stroke-width="1.05"></line><line x1="714.3" y1="204.1" x2="764.8" y2="254.3" stroke="#9a8654" stroke-opacity="0.224" stroke-width="1.05"></line><line x1="282.9" y1="276.7" x2="338.6" y2="254.3" stroke="#8fa08c" stroke-opacity="0.273" stroke-width="0.75"></line><line x1="282.9" y1="276.7" x2="386.2" y2="276.2" stroke="#8fa08c" stroke-opacity="0.081" stroke-width="0.75"></line><line x1="282.9" y1="276.7" x2="213.3" y2="318.1" stroke="#9a8654" stroke-opacity="0.180" stroke-width="1.05"></line><line x1="282.9" y1="276.7" x2="221.9" y2="349.9" stroke="#8fa08c" stroke-opacity="0.117" stroke-width="0.75"></line><line x1="282.9" y1="276.7" x2="267.5" y2="360.1" stroke="#8fa08c" stroke-opacity="0.163" stroke-width="0.75"></line><line x1="338.6" y1="254.3" x2="386.2" y2="276.2" stroke="#8fa08c" stroke-opacity="0.307" stroke-width="0.75"></line><line x1="386.2" y1="276.2" x2="450.6" y2="246.0" stroke="#8fa08c" stroke-opacity="0.224" stroke-width="0.75"></line><line x1="386.2" y1="276.2" x2="448.0" y2="317.3" stroke="#9a8654" stroke-opacity="0.210" stroke-width="1.05"></line><line x1="386.2" y1="276.2" x2="375.5" y2="373.4" stroke="#8fa08c" stroke-opacity="0.106" stroke-width="0.75"></line><line x1="386.2" y1="276.2" x2="450.7" y2="351.8" stroke="#8fa08c" stroke-opacity="0.098" stroke-width="0.75"></line><line x1="450.6" y1="246.0" x2="448.0" y2="317.3" stroke="#9a8654" stroke-opacity="0.223" stroke-width="1.05"></line><line x1="450.6" y1="246.0" x2="489.1" y2="319.6" stroke="#8fa08c" stroke-opacity="0.171" stroke-width="0.75"></line><line x1="450.6" y1="246.0" x2="450.7" y2="351.8" stroke="#8fa08c" stroke-opacity="0.069" stroke-width="0.75"></line><line x1="655.2" y1="247.4" x2="687.4" y2="268.5" stroke="#9a8654" stroke-opacity="0.369" stroke-width="1.05"></line><line x1="655.2" y1="247.4" x2="601.5" y2="312.0" stroke="#9a8654" stroke-opacity="0.167" stroke-width="1.05"></line><line x1="655.2" y1="247.4" x2="651.6" y2="310.5" stroke="#9a8654" stroke-opacity="0.259" stroke-width="1.05"></line><line x1="687.4" y1="268.5" x2="764.8" y2="254.3" stroke="#9a8654" stroke-opacity="0.190" stroke-width="1.05"></line><line x1="687.4" y1="268.5" x2="601.5" y2="312.0" stroke="#8fa08c" stroke-opacity="0.112" stroke-width="0.75"></line><line x1="687.4" y1="268.5" x2="651.6" y2="310.5" stroke="#8fa08c" stroke-opacity="0.295" stroke-width="0.75"></line><line x1="687.4" y1="268.5" x2="768.2" y2="322.4" stroke="#8fa08c" stroke-opacity="0.108" stroke-width="0.75"></line><line x1="764.8" y1="254.3" x2="768.2" y2="322.4" stroke="#9a8654" stroke-opacity="0.237" stroke-width="1.05"></line><line x1="764.8" y1="254.3" x2="789.9" y2="325.1" stroke="#9a8654" stroke-opacity="0.206" stroke-width="1.05"></line><line x1="213.3" y1="318.1" x2="221.9" y2="349.9" stroke="#9a8654" stroke-opacity="0.393" stroke-width="1.05"></line><line x1="213.3" y1="318.1" x2="267.5" y2="360.1" stroke="#9a8654" stroke-opacity="0.235" stroke-width="1.05"></line><line x1="448.0" y1="317.3" x2="489.1" y2="319.6" stroke="#9a8654" stroke-opacity="0.357" stroke-width="1.05"></line><line x1="448.0" y1="317.3" x2="375.5" y2="373.4" stroke="#9a8654" stroke-opacity="0.133" stroke-width="1.05"></line><line x1="448.0" y1="317.3" x2="450.7" y2="351.8" stroke="#9a8654" stroke-opacity="0.386" stroke-width="1.05"></line><line x1="448.0" y1="317.3" x2="490.0" y2="384.2" stroke="#9a8654" stroke-opacity="0.188" stroke-width="1.05"></line><line x1="489.1" y1="319.6" x2="450.7" y2="351.8" stroke="#8fa08c" stroke-opacity="0.317" stroke-width="0.75"></line><line x1="489.1" y1="319.6" x2="490.0" y2="384.2" stroke="#8fa08c" stroke-opacity="0.253" stroke-width="0.75"></line><line x1="489.1" y1="319.6" x2="554.5" y2="357.3" stroke="#8fa08c" stroke-opacity="0.205" stroke-width="0.75"></line><line x1="489.1" y1="319.6" x2="554.8" y2="403.1" stroke="#8fa08c" stroke-opacity="0.068" stroke-width="0.75"></line><line x1="601.5" y1="312.0" x2="651.6" y2="310.5" stroke="#8fa08c" stroke-opacity="0.317" stroke-width="0.75"></line><line x1="601.5" y1="312.0" x2="554.5" y2="357.3" stroke="#8fa08c" stroke-opacity="0.250" stroke-width="0.75"></line><line x1="601.5" y1="312.0" x2="630.1" y2="364.4" stroke="#8fa08c" stroke-opacity="0.275" stroke-width="0.75"></line><line x1="601.5" y1="312.0" x2="554.8" y2="403.1" stroke="#8fa08c" stroke-opacity="0.085" stroke-width="0.75"></line><line x1="651.6" y1="310.5" x2="554.5" y2="357.3" stroke="#8fa08c" stroke-opacity="0.061" stroke-width="0.75"></line><line x1="651.6" y1="310.5" x2="630.1" y2="364.4" stroke="#8fa08c" stroke-opacity="0.282" stroke-width="0.75"></line><line x1="651.6" y1="310.5" x2="709.2" y2="377.3" stroke="#9a8654" stroke-opacity="0.148" stroke-width="1.05"></line><line x1="651.6" y1="310.5" x2="661.2" y2="414.2" stroke="#8fa08c" stroke-opacity="0.077" stroke-width="0.75"></line><line x1="768.2" y1="322.4" x2="789.9" y2="325.1" stroke="#9a8654" stroke-opacity="0.443" stroke-width="1.05"></line><line x1="768.2" y1="322.4" x2="709.2" y2="377.3" stroke="#9a8654" stroke-opacity="0.182" stroke-width="1.05"></line><line x1="768.2" y1="322.4" x2="791.3" y2="383.1" stroke="#8fa08c" stroke-opacity="0.251" stroke-width="0.75"></line><line x1="768.2" y1="322.4" x2="746.5" y2="411.9" stroke="#9a8654" stroke-opacity="0.131" stroke-width="1.05"></line><line x1="789.9" y1="325.1" x2="709.2" y2="377.3" stroke="#9a8654" stroke-opacity="0.113" stroke-width="1.05"></line><line x1="789.9" y1="325.1" x2="791.3" y2="383.1" stroke="#9a8654" stroke-opacity="0.282" stroke-width="1.05"></line><line x1="789.9" y1="325.1" x2="746.5" y2="411.9" stroke="#9a8654" stroke-opacity="0.109" stroke-width="1.05"></line><line x1="221.9" y1="349.9" x2="267.5" y2="360.1" stroke="#8fa08c" stroke-opacity="0.332" stroke-width="0.75"></line><line x1="221.9" y1="349.9" x2="246.9" y2="432.1" stroke="#8fa08c" stroke-opacity="0.158" stroke-width="0.75"></line><line x1="267.5" y1="360.1" x2="326.8" y2="376.5" stroke="#8fa08c" stroke-opacity="0.267" stroke-width="0.75"></line><line x1="267.5" y1="360.1" x2="246.9" y2="432.1" stroke="#8fa08c" stroke-opacity="0.207" stroke-width="0.75"></line><line x1="267.5" y1="360.1" x2="331.5" y2="413.0" stroke="#9a8654" stroke-opacity="0.171" stroke-width="1.05"></line><line x1="267.5" y1="360.1" x2="281.9" y2="466.9" stroke="#8fa08c" stroke-opacity="0.061" stroke-width="0.75"></line><line x1="326.8" y1="376.5" x2="375.5" y2="373.4" stroke="#8fa08c" stroke-opacity="0.323" stroke-width="0.75"></line><line x1="326.8" y1="376.5" x2="246.9" y2="432.1" stroke="#8fa08c" stroke-opacity="0.108" stroke-width="0.75"></line><line x1="326.8" y1="376.5" x2="331.5" y2="413.0" stroke="#9a8654" stroke-opacity="0.377" stroke-width="1.05"></line><line x1="326.8" y1="376.5" x2="402.3" y2="438.3" stroke="#8fa08c" stroke-opacity="0.106" stroke-width="0.75"></line><line x1="326.8" y1="376.5" x2="281.9" y2="466.9" stroke="#8fa08c" stroke-opacity="0.092" stroke-width="0.75"></line><line x1="375.5" y1="373.4" x2="450.7" y2="351.8" stroke="#8fa08c" stroke-opacity="0.193" stroke-width="0.75"></line><line x1="375.5" y1="373.4" x2="331.5" y2="413.0" stroke="#9a8654" stroke-opacity="0.277" stroke-width="1.05"></line><line x1="375.5" y1="373.4" x2="402.3" y2="438.3" stroke="#8fa08c" stroke-opacity="0.228" stroke-width="0.75"></line><line x1="375.5" y1="373.4" x2="376.8" y2="478.9" stroke="#8fa08c" stroke-opacity="0.071" stroke-width="0.75"></line><line x1="450.7" y1="351.8" x2="490.0" y2="384.2" stroke="#8fa08c" stroke-opacity="0.314" stroke-width="0.75"></line><line x1="450.7" y1="351.8" x2="554.5" y2="357.3" stroke="#8fa08c" stroke-opacity="0.078" stroke-width="0.75"></line><line x1="450.7" y1="351.8" x2="402.3" y2="438.3" stroke="#8fa08c" stroke-opacity="0.099" stroke-width="0.75"></line><line x1="450.7" y1="351.8" x2="479.1" y2="432.4" stroke="#8fa08c" stroke-opacity="0.160" stroke-width="0.75"></line><line x1="490.0" y1="384.2" x2="554.5" y2="357.3" stroke="#8fa08c" stroke-opacity="0.230" stroke-width="0.75"></line><line x1="490.0" y1="384.2" x2="402.3" y2="438.3" stroke="#8fa08c" stroke-opacity="0.082" stroke-width="0.75"></line><line x1="490.0" y1="384.2" x2="479.1" y2="432.4" stroke="#8fa08c" stroke-opacity="0.321" stroke-width="0.75"></line><line x1="490.0" y1="384.2" x2="554.8" y2="403.1" stroke="#8fa08c" stroke-opacity="0.240" stroke-width="0.75"></line><line x1="490.0" y1="384.2" x2="522.8" y2="467.1" stroke="#8fa08c" stroke-opacity="0.144" stroke-width="0.75"></line><line x1="554.5" y1="357.3" x2="630.1" y2="364.4" stroke="#8fa08c" stroke-opacity="0.202" stroke-width="0.75"></line><line x1="554.5" y1="357.3" x2="479.1" y2="432.4" stroke="#8fa08c" stroke-opacity="0.067" stroke-width="0.75"></line><line x1="554.5" y1="357.3" x2="554.8" y2="403.1" stroke="#8fa08c" stroke-opacity="0.336" stroke-width="0.75"></line><line x1="630.1" y1="364.4" x2="709.2" y2="377.3" stroke="#9a8654" stroke-opacity="0.184" stroke-width="1.05"></line><line x1="630.1" y1="364.4" x2="554.8" y2="403.1" stroke="#8fa08c" stroke-opacity="0.164" stroke-width="0.75"></line><line x1="630.1" y1="364.4" x2="661.2" y2="414.2" stroke="#8fa08c" stroke-opacity="0.279" stroke-width="0.75"></line><line x1="630.1" y1="364.4" x2="704.8" y2="428.7" stroke="#8fa08c" stroke-opacity="0.102" stroke-width="0.75"></line><line x1="630.1" y1="364.4" x2="634.2" y2="463.0" stroke="#8fa08c" stroke-opacity="0.101" stroke-width="0.75"></line><line x1="630.1" y1="364.4" x2="686.3" y2="454.5" stroke="#8fa08c" stroke-opacity="0.068" stroke-width="0.75"></line><line x1="709.2" y1="377.3" x2="791.3" y2="383.1" stroke="#9a8654" stroke-opacity="0.174" stroke-width="1.05"></line><line x1="709.2" y1="377.3" x2="661.2" y2="414.2" stroke="#9a8654" stroke-opacity="0.271" stroke-width="1.05"></line><line x1="709.2" y1="377.3" x2="704.8" y2="428.7" stroke="#9a8654" stroke-opacity="0.310" stroke-width="1.05"></line><line x1="709.2" y1="377.3" x2="746.5" y2="411.9" stroke="#9a8654" stroke-opacity="0.314" stroke-width="1.05"></line><line x1="709.2" y1="377.3" x2="686.3" y2="454.5" stroke="#9a8654" stroke-opacity="0.182" stroke-width="1.05"></line><line x1="791.3" y1="383.1" x2="704.8" y2="428.7" stroke="#8fa08c" stroke-opacity="0.105" stroke-width="0.75"></line><line x1="791.3" y1="383.1" x2="746.5" y2="411.9" stroke="#9a8654" stroke-opacity="0.304" stroke-width="1.05"></line><line x1="791.3" y1="383.1" x2="766.5" y2="478.3" stroke="#8fa08c" stroke-opacity="0.103" stroke-width="0.75"></line><line x1="791.3" y1="383.1" x2="794.3" y2="483.0" stroke="#8fa08c" stroke-opacity="0.096" stroke-width="0.75"></line><line x1="246.9" y1="432.1" x2="331.5" y2="413.0" stroke="#9a8654" stroke-opacity="0.155" stroke-width="1.05"></line><line x1="246.9" y1="432.1" x2="237.0" y2="475.8" stroke="#8fa08c" stroke-opacity="0.341" stroke-width="0.75"></line><line x1="246.9" y1="432.1" x2="281.9" y2="466.9" stroke="#8fa08c" stroke-opacity="0.321" stroke-width="0.75"></line><line x1="246.9" y1="432.1" x2="328.4" y2="489.0" stroke="#8fa08c" stroke-opacity="0.098" stroke-width="0.75"></line><line x1="246.9" y1="432.1" x2="241.9" y2="538.0" stroke="#8fa08c" stroke-opacity="0.069" stroke-width="0.75"></line><line x1="331.5" y1="413.0" x2="402.3" y2="438.3" stroke="#9a8654" stroke-opacity="0.206" stroke-width="1.05"></line><line x1="331.5" y1="413.0" x2="281.9" y2="466.9" stroke="#9a8654" stroke-opacity="0.214" stroke-width="1.05"></line><line x1="331.5" y1="413.0" x2="328.4" y2="489.0" stroke="#9a8654" stroke-opacity="0.202" stroke-width="1.05"></line><line x1="331.5" y1="413.0" x2="376.8" y2="478.9" stroke="#9a8654" stroke-opacity="0.185" stroke-width="1.05"></line><line x1="331.5" y1="413.0" x2="342.4" y2="519.5" stroke="#9a8654" stroke-opacity="0.064" stroke-width="1.05"></line><line x1="402.3" y1="438.3" x2="479.1" y2="432.4" stroke="#8fa08c" stroke-opacity="0.198" stroke-width="0.75"></line><line x1="402.3" y1="438.3" x2="328.4" y2="489.0" stroke="#8fa08c" stroke-opacity="0.142" stroke-width="0.75"></line><line x1="402.3" y1="438.3" x2="376.8" y2="478.9" stroke="#8fa08c" stroke-opacity="0.327" stroke-width="0.75"></line><line x1="402.3" y1="438.3" x2="342.4" y2="519.5" stroke="#8fa08c" stroke-opacity="0.092" stroke-width="0.75"></line><line x1="402.3" y1="438.3" x2="419.4" y2="542.4" stroke="#8fa08c" stroke-opacity="0.071" stroke-width="0.75"></line><line x1="479.1" y1="432.4" x2="554.8" y2="403.1" stroke="#8fa08c" stroke-opacity="0.179" stroke-width="0.75"></line><line x1="479.1" y1="432.4" x2="522.8" y2="467.1" stroke="#8fa08c" stroke-opacity="0.292" stroke-width="0.75"></line><line x1="554.8" y1="403.1" x2="661.2" y2="414.2" stroke="#8fa08c" stroke-opacity="0.065" stroke-width="0.75"></line><line x1="554.8" y1="403.1" x2="522.8" y2="467.1" stroke="#8fa08c" stroke-opacity="0.222" stroke-width="0.75"></line><line x1="554.8" y1="403.1" x2="634.2" y2="463.0" stroke="#8fa08c" stroke-opacity="0.098" stroke-width="0.75"></line><line x1="661.2" y1="414.2" x2="704.8" y2="428.7" stroke="#8fa08c" stroke-opacity="0.336" stroke-width="0.75"></line><line x1="661.2" y1="414.2" x2="746.5" y2="411.9" stroke="#9a8654" stroke-opacity="0.161" stroke-width="1.05"></line><line x1="661.2" y1="414.2" x2="634.2" y2="463.0" stroke="#8fa08c" stroke-opacity="0.292" stroke-width="0.75"></line><line x1="661.2" y1="414.2" x2="686.3" y2="454.5" stroke="#8fa08c" stroke-opacity="0.329" stroke-width="0.75"></line><line x1="704.8" y1="428.7" x2="746.5" y2="411.9" stroke="#9a8654" stroke-opacity="0.340" stroke-width="1.05"></line><line x1="704.8" y1="428.7" x2="634.2" y2="463.0" stroke="#8fa08c" stroke-opacity="0.191" stroke-width="0.75"></line><line x1="704.8" y1="428.7" x2="686.3" y2="454.5" stroke="#8fa08c" stroke-opacity="0.399" stroke-width="0.75"></line><line x1="704.8" y1="428.7" x2="766.5" y2="478.3" stroke="#8fa08c" stroke-opacity="0.188" stroke-width="0.75"></line><line x1="704.8" y1="428.7" x2="794.3" y2="483.0" stroke="#8fa08c" stroke-opacity="0.075" stroke-width="0.75"></line><line x1="746.5" y1="411.9" x2="686.3" y2="454.5" stroke="#9a8654" stroke-opacity="0.212" stroke-width="1.05"></line><line x1="746.5" y1="411.9" x2="766.5" y2="478.3" stroke="#9a8654" stroke-opacity="0.232" stroke-width="1.05"></line><line x1="746.5" y1="411.9" x2="794.3" y2="483.0" stroke="#9a8654" stroke-opacity="0.160" stroke-width="1.05"></line><line x1="237.0" y1="475.8" x2="281.9" y2="466.9" stroke="#8fa08c" stroke-opacity="0.337" stroke-width="0.75"></line><line x1="237.0" y1="475.8" x2="328.4" y2="489.0" stroke="#8fa08c" stroke-opacity="0.130" stroke-width="0.75"></line><line x1="237.0" y1="475.8" x2="241.9" y2="538.0" stroke="#8fa08c" stroke-opacity="0.263" stroke-width="0.75"></line><line x1="237.0" y1="475.8" x2="225.4" y2="559.9" stroke="#8fa08c" stroke-opacity="0.163" stroke-width="0.75"></line><line x1="237.0" y1="475.8" x2="267.9" y2="570.4" stroke="#8fa08c" stroke-opacity="0.098" stroke-width="0.75"></line><line x1="281.9" y1="466.9" x2="328.4" y2="489.0" stroke="#8fa08c" stroke-opacity="0.311" stroke-width="0.75"></line><line x1="281.9" y1="466.9" x2="376.8" y2="478.9" stroke="#8fa08c" stroke-opacity="0.115" stroke-width="0.75"></line><line x1="281.9" y1="466.9" x2="241.9" y2="538.0" stroke="#8fa08c" stroke-opacity="0.177" stroke-width="0.75"></line><line x1="281.9" y1="466.9" x2="342.4" y2="519.5" stroke="#8fa08c" stroke-opacity="0.183" stroke-width="0.75"></line><line x1="281.9" y1="466.9" x2="267.9" y2="570.4" stroke="#8fa08c" stroke-opacity="0.076" stroke-width="0.75"></line><line x1="328.4" y1="489.0" x2="376.8" y2="478.9" stroke="#8fa08c" stroke-opacity="0.320" stroke-width="0.75"></line><line x1="328.4" y1="489.0" x2="241.9" y2="538.0" stroke="#8fa08c" stroke-opacity="0.098" stroke-width="0.75"></line><line x1="328.4" y1="489.0" x2="342.4" y2="519.5" stroke="#8fa08c" stroke-opacity="0.391" stroke-width="0.75"></line><line x1="328.4" y1="489.0" x2="369.3" y2="542.3" stroke="#9a8654" stroke-opacity="0.242" stroke-width="1.05"></line><line x1="328.4" y1="489.0" x2="419.4" y2="542.4" stroke="#8fa08c" stroke-opacity="0.071" stroke-width="0.75"></line><line x1="328.4" y1="489.0" x2="267.9" y2="570.4" stroke="#8fa08c" stroke-opacity="0.090" stroke-width="0.75"></line><line x1="328.4" y1="489.0" x2="344.4" y2="577.3" stroke="#8fa08c" stroke-opacity="0.141" stroke-width="0.75"></line><line x1="328.4" y1="489.0" x2="386.8" y2="562.0" stroke="#8fa08c" stroke-opacity="0.124" stroke-width="0.75"></line><line x1="376.8" y1="478.9" x2="342.4" y2="519.5" stroke="#8fa08c" stroke-opacity="0.303" stroke-width="0.75"></line><line x1="376.8" y1="478.9" x2="369.3" y2="542.3" stroke="#9a8654" stroke-opacity="0.256" stroke-width="1.05"></line><line x1="376.8" y1="478.9" x2="419.4" y2="542.4" stroke="#8fa08c" stroke-opacity="0.200" stroke-width="0.75"></line><line x1="376.8" y1="478.9" x2="344.4" y2="577.3" stroke="#8fa08c" stroke-opacity="0.079" stroke-width="0.75"></line><line x1="376.8" y1="478.9" x2="386.8" y2="562.0" stroke="#8fa08c" stroke-opacity="0.168" stroke-width="0.75"></line><line x1="522.8" y1="467.1" x2="602.1" y2="518.4" stroke="#8fa08c" stroke-opacity="0.120" stroke-width="0.75"></line><line x1="634.2" y1="463.0" x2="686.3" y2="454.5" stroke="#8fa08c" stroke-opacity="0.306" stroke-width="0.75"></line><line x1="634.2" y1="463.0" x2="602.1" y2="518.4" stroke="#8fa08c" stroke-opacity="0.255" stroke-width="0.75"></line><line x1="634.2" y1="463.0" x2="629.4" y2="562.9" stroke="#8fa08c" stroke-opacity="0.096" stroke-width="0.75"></line><line x1="686.3" y1="454.5" x2="766.5" y2="478.3" stroke="#8fa08c" stroke-opacity="0.168" stroke-width="0.75"></line><line x1="686.3" y1="454.5" x2="602.1" y2="518.4" stroke="#8fa08c" stroke-opacity="0.070" stroke-width="0.75"></line><line x1="766.5" y1="478.3" x2="794.3" y2="483.0" stroke="#8fa08c" stroke-opacity="0.415" stroke-width="0.75"></line><line x1="241.9" y1="538.0" x2="342.4" y2="519.5" stroke="#8fa08c" stroke-opacity="0.086" stroke-width="0.75"></line><line x1="241.9" y1="538.0" x2="225.4" y2="559.9" stroke="#8fa08c" stroke-opacity="0.418" stroke-width="0.75"></line><line x1="241.9" y1="538.0" x2="267.9" y2="570.4" stroke="#8fa08c" stroke-opacity="0.355" stroke-width="0.75"></line><line x1="241.9" y1="538.0" x2="225.5" y2="638.6" stroke="#8fa08c" stroke-opacity="0.087" stroke-width="0.75"></line><line x1="241.9" y1="538.0" x2="287.7" y2="632.7" stroke="#8fa08c" stroke-opacity="0.072" stroke-width="0.75"></line><line x1="342.4" y1="519.5" x2="369.3" y2="542.3" stroke="#9a8654" stroke-opacity="0.383" stroke-width="1.05"></line><line x1="342.4" y1="519.5" x2="419.4" y2="542.4" stroke="#8fa08c" stroke-opacity="0.183" stroke-width="0.75"></line><line x1="342.4" y1="519.5" x2="267.9" y2="570.4" stroke="#8fa08c" stroke-opacity="0.139" stroke-width="0.75"></line><line x1="342.4" y1="519.5" x2="344.4" y2="577.3" stroke="#8fa08c" stroke-opacity="0.283" stroke-width="0.75"></line><line x1="342.4" y1="519.5" x2="386.8" y2="562.0" stroke="#8fa08c" stroke-opacity="0.267" stroke-width="0.75"></line><line x1="369.3" y1="542.3" x2="419.4" y2="542.4" stroke="#9a8654" stroke-opacity="0.317" stroke-width="1.05"></line><line x1="369.3" y1="542.3" x2="267.9" y2="570.4" stroke="#9a8654" stroke-opacity="0.072" stroke-width="1.05"></line><line x1="369.3" y1="542.3" x2="344.4" y2="577.3" stroke="#9a8654" stroke-opacity="0.349" stroke-width="1.05"></line><line x1="369.3" y1="542.3" x2="386.8" y2="562.0" stroke="#9a8654" stroke-opacity="0.423" stroke-width="1.05"></line><line x1="369.3" y1="542.3" x2="349.5" y2="638.8" stroke="#9a8654" stroke-opacity="0.102" stroke-width="1.05"></line><line x1="369.3" y1="542.3" x2="405.0" y2="608.1" stroke="#9a8654" stroke-opacity="0.207" stroke-width="1.05"></line><line x1="419.4" y1="542.4" x2="344.4" y2="577.3" stroke="#8fa08c" stroke-opacity="0.172" stroke-width="0.75"></line><line x1="419.4" y1="542.4" x2="386.8" y2="562.0" stroke="#8fa08c" stroke-opacity="0.371" stroke-width="0.75"></line><line x1="419.4" y1="542.4" x2="477.4" y2="570.9" stroke="#8fa08c" stroke-opacity="0.253" stroke-width="0.75"></line><line x1="419.4" y1="542.4" x2="405.0" y2="608.1" stroke="#8fa08c" stroke-opacity="0.241" stroke-width="0.75"></line><line x1="419.4" y1="542.4" x2="431.8" y2="643.1" stroke="#9a8654" stroke-opacity="0.089" stroke-width="1.05"></line><line x1="602.1" y1="518.4" x2="578.3" y2="572.8" stroke="#8fa08c" stroke-opacity="0.276" stroke-width="0.75"></line><line x1="602.1" y1="518.4" x2="629.4" y2="562.9" stroke="#8fa08c" stroke-opacity="0.308" stroke-width="0.75"></line><line x1="225.4" y1="559.9" x2="267.9" y2="570.4" stroke="#8fa08c" stroke-opacity="0.346" stroke-width="0.75"></line><line x1="225.4" y1="559.9" x2="225.5" y2="638.6" stroke="#8fa08c" stroke-opacity="0.190" stroke-width="0.75"></line><line x1="225.4" y1="559.9" x2="287.7" y2="632.7" stroke="#8fa08c" stroke-opacity="0.114" stroke-width="0.75"></line><line x1="267.9" y1="570.4" x2="344.4" y2="577.3" stroke="#8fa08c" stroke-opacity="0.199" stroke-width="0.75"></line><line x1="267.9" y1="570.4" x2="225.5" y2="638.6" stroke="#8fa08c" stroke-opacity="0.183" stroke-width="0.75"></line><line x1="267.9" y1="570.4" x2="287.7" y2="632.7" stroke="#8fa08c" stroke-opacity="0.249" stroke-width="0.75"></line><line x1="267.9" y1="570.4" x2="349.5" y2="638.8" stroke="#8fa08c" stroke-opacity="0.067" stroke-width="0.75"></line><line x1="344.4" y1="577.3" x2="386.8" y2="562.0" stroke="#8fa08c" stroke-opacity="0.340" stroke-width="0.75"></line><line x1="344.4" y1="577.3" x2="287.7" y2="632.7" stroke="#8fa08c" stroke-opacity="0.188" stroke-width="0.75"></line><line x1="344.4" y1="577.3" x2="349.5" y2="638.8" stroke="#8fa08c" stroke-opacity="0.266" stroke-width="0.75"></line><line x1="344.4" y1="577.3" x2="405.0" y2="608.1" stroke="#8fa08c" stroke-opacity="0.238" stroke-width="0.75"></line><line x1="386.8" y1="562.0" x2="477.4" y2="570.9" stroke="#8fa08c" stroke-opacity="0.135" stroke-width="0.75"></line><line x1="386.8" y1="562.0" x2="349.5" y2="638.8" stroke="#8fa08c" stroke-opacity="0.161" stroke-width="0.75"></line><line x1="386.8" y1="562.0" x2="405.0" y2="608.1" stroke="#8fa08c" stroke-opacity="0.320" stroke-width="0.75"></line><line x1="386.8" y1="562.0" x2="431.8" y2="643.1" stroke="#9a8654" stroke-opacity="0.128" stroke-width="1.05"></line><line x1="477.4" y1="570.9" x2="578.3" y2="572.8" stroke="#8fa08c" stroke-opacity="0.091" stroke-width="0.75"></line><line x1="477.4" y1="570.9" x2="405.0" y2="608.1" stroke="#8fa08c" stroke-opacity="0.178" stroke-width="0.75"></line><line x1="477.4" y1="570.9" x2="431.8" y2="643.1" stroke="#9a8654" stroke-opacity="0.161" stroke-width="1.05"></line><line x1="477.4" y1="570.9" x2="488.6" y2="627.8" stroke="#8fa08c" stroke-opacity="0.282" stroke-width="0.75"></line><line x1="477.4" y1="570.9" x2="555.7" y2="630.2" stroke="#8fa08c" stroke-opacity="0.103" stroke-width="0.75"></line><line x1="578.3" y1="572.8" x2="629.4" y2="562.9" stroke="#8fa08c" stroke-opacity="0.309" stroke-width="0.75"></line><line x1="578.3" y1="572.8" x2="488.6" y2="627.8" stroke="#8fa08c" stroke-opacity="0.072" stroke-width="0.75"></line><line x1="578.3" y1="572.8" x2="555.7" y2="630.2" stroke="#8fa08c" stroke-opacity="0.266" stroke-width="0.75"></line><line x1="629.4" y1="562.9" x2="555.7" y2="630.2" stroke="#8fa08c" stroke-opacity="0.096" stroke-width="0.75"></line><line x1="225.5" y1="638.6" x2="287.7" y2="632.7" stroke="#8fa08c" stroke-opacity="0.262" stroke-width="0.75"></line><line x1="287.7" y1="632.7" x2="349.5" y2="638.8" stroke="#8fa08c" stroke-opacity="0.264" stroke-width="0.75"></line><line x1="349.5" y1="638.8" x2="405.0" y2="608.1" stroke="#8fa08c" stroke-opacity="0.258" stroke-width="0.75"></line><line x1="349.5" y1="638.8" x2="431.8" y2="643.1" stroke="#9a8654" stroke-opacity="0.174" stroke-width="1.05"></line><line x1="405.0" y1="608.1" x2="431.8" y2="643.1" stroke="#9a8654" stroke-opacity="0.344" stroke-width="1.05"></line><line x1="405.0" y1="608.1" x2="488.6" y2="627.8" stroke="#8fa08c" stroke-opacity="0.158" stroke-width="0.75"></line><line x1="431.8" y1="643.1" x2="488.6" y2="627.8" stroke="#9a8654" stroke-opacity="0.279" stroke-width="1.05"></line><line x1="488.6" y1="627.8" x2="555.7" y2="630.2" stroke="#8fa08c" stroke-opacity="0.242" stroke-width="0.75"></line></g><circle cx="242.1" cy="162.4" r="4.0" fill="#eef0e6" fill-opacity="0.78"></circle><circle cx="267.3" cy="166.6" r="2.5" fill="#eef0e6" fill-opacity="0.78"></circle><circle cx="340.4" cy="169.9" r="1.7" fill="#eef0e6" fill-opacity="0.78"></circle><circle cx="423.5" cy="151.2" r="3.5" fill="#eef0e6" fill-opacity="0.78"></circle><circle cx="504.6" cy="173.6" r="4.4" fill="#eef0e6" fill-opacity="0.78"></circle><circle cx="561.7" cy="177.6" r="13.8" fill="url(#brassGlow)"></circle><circle cx="561.7" cy="177.6" r="4.5" fill="#d8bf83" fill-opacity="0.95"></circle><circle cx="612.3" cy="173.2" r="3.2" fill="#eef0e6" fill-opacity="0.78"></circle><circle cx="275.7" cy="206.9" r="3.8" fill="#eef0e6" fill-opacity="0.78"></circle><circle cx="329.7" cy="194.0" r="8.6" fill="url(#brassGlow)"></circle><circle cx="329.7" cy="194.0" r="2.8" fill="#d8bf83" fill-opacity="0.95"></circle><circle cx="373.3" cy="208.9" r="4.8" fill="url(#brassGlow)"></circle><circle cx="373.3" cy="208.9" r="1.5" fill="#d8bf83" fill-opacity="0.95"></circle><circle cx="547.8" cy="216.3" r="2.0" fill="#eef0e6" fill-opacity="0.78"></circle><circle cx="597.6" cy="229.4" r="2.0" fill="#eef0e6" fill-opacity="0.78"></circle><circle cx="645.1" cy="192.5" r="2.0" fill="#eef0e6" fill-opacity="0.78"></circle><circle cx="714.3" cy="204.1" r="8.8" fill="url(#brassGlow)"></circle><circle cx="714.3" cy="204.1" r="2.8" fill="#d8bf83" fill-opacity="0.95"></circle><circle cx="282.9" cy="276.7" r="2.2" fill="#eef0e6" fill-opacity="0.78"></circle><circle cx="338.6" cy="254.3" r="4.0" fill="#eef0e6" fill-opacity="0.78"></circle><circle cx="386.2" cy="276.2" r="2.6" fill="#eef0e6" fill-opacity="0.78"></circle><circle cx="450.6" cy="246.0" r="4.4" fill="#eef0e6" fill-opacity="0.78"></circle><circle cx="655.2" cy="247.4" r="10.0" fill="url(#brassGlow)"></circle><circle cx="655.2" cy="247.4" r="3.2" fill="#d8bf83" fill-opacity="0.95"></circle><circle cx="687.4" cy="268.5" r="3.6" fill="#eef0e6" fill-opacity="0.78"></circle><circle cx="764.8" cy="254.3" r="12.1" fill="url(#brassGlow)"></circle><circle cx="764.8" cy="254.3" r="3.9" fill="#d8bf83" fill-opacity="0.95"></circle><circle cx="213.3" cy="318.1" r="7.5" fill="url(#brassGlow)"></circle><circle cx="213.3" cy="318.1" r="2.4" fill="#d8bf83" fill-opacity="0.95"></circle><circle cx="448.0" cy="317.3" r="7.0" fill="url(#brassGlow)"></circle><circle cx="448.0" cy="317.3" r="2.2" fill="#d8bf83" fill-opacity="0.95"></circle><circle cx="489.1" cy="319.6" r="2.9" fill="#eef0e6" fill-opacity="0.78"></circle><circle cx="601.5" cy="312.0" r="4.4" fill="#eef0e6" fill-opacity="0.78"></circle><circle cx="651.6" cy="310.5" r="4.0" fill="#eef0e6" fill-opacity="0.78"></circle><circle cx="768.2" cy="322.4" r="3.9" fill="#eef0e6" fill-opacity="0.78"></circle><circle cx="789.9" cy="325.1" r="5.2" fill="url(#brassGlow)"></circle><circle cx="789.9" cy="325.1" r="1.7" fill="#d8bf83" fill-opacity="0.95"></circle><circle cx="221.9" cy="349.9" r="4.4" fill="#eef0e6" fill-opacity="0.78"></circle><circle cx="267.5" cy="360.1" r="3.1" fill="#eef0e6" fill-opacity="0.78"></circle><circle cx="326.8" cy="376.5" r="2.7" fill="#eef0e6" fill-opacity="0.78"></circle><circle cx="375.5" cy="373.4" r="2.7" fill="#eef0e6" fill-opacity="0.78"></circle><circle cx="450.7" cy="351.8" r="3.3" fill="#eef0e6" fill-opacity="0.78"></circle><circle cx="490.0" cy="384.2" r="3.7" fill="#eef0e6" fill-opacity="0.78"></circle><circle cx="554.5" cy="357.3" r="3.6" fill="#eef0e6" fill-opacity="0.78"></circle><circle cx="630.1" cy="364.4" r="1.7" fill="#eef0e6" fill-opacity="0.78"></circle><circle cx="709.2" cy="377.3" r="6.8" fill="url(#brassGlow)"></circle><circle cx="709.2" cy="377.3" r="2.2" fill="#d8bf83" fill-opacity="0.95"></circle><circle cx="791.3" cy="383.1" r="2.9" fill="#eef0e6" fill-opacity="0.78"></circle><circle cx="246.9" cy="432.1" r="3.6" fill="#eef0e6" fill-opacity="0.78"></circle><circle cx="331.5" cy="413.0" r="6.5" fill="url(#brassGlow)"></circle><circle cx="331.5" cy="413.0" r="2.1" fill="#d8bf83" fill-opacity="0.95"></circle><circle cx="402.3" cy="438.3" r="2.5" fill="#eef0e6" fill-opacity="0.78"></circle><circle cx="479.1" cy="432.4" r="2.0" fill="#eef0e6" fill-opacity="0.78"></circle><circle cx="554.8" cy="403.1" r="2.3" fill="#eef0e6" fill-opacity="0.78"></circle><circle cx="661.2" cy="414.2" r="3.5" fill="#eef0e6" fill-opacity="0.78"></circle><circle cx="704.8" cy="428.7" r="1.6" fill="#eef0e6" fill-opacity="0.78"></circle><circle cx="746.5" cy="411.9" r="6.2" fill="url(#brassGlow)"></circle><circle cx="746.5" cy="411.9" r="2.0" fill="#d8bf83" fill-opacity="0.95"></circle><circle cx="237.0" cy="475.8" r="1.6" fill="#eef0e6" fill-opacity="0.78"></circle><circle cx="281.9" cy="466.9" r="3.9" fill="#eef0e6" fill-opacity="0.78"></circle><circle cx="328.4" cy="489.0" r="3.2" fill="#eef0e6" fill-opacity="0.78"></circle><circle cx="376.8" cy="478.9" r="4.1" fill="#eef0e6" fill-opacity="0.78"></circle><circle cx="522.8" cy="467.1" r="2.3" fill="#eef0e6" fill-opacity="0.78"></circle><circle cx="634.2" cy="463.0" r="2.5" fill="#eef0e6" fill-opacity="0.78"></circle><circle cx="686.3" cy="454.5" r="1.7" fill="#eef0e6" fill-opacity="0.78"></circle><circle cx="766.5" cy="478.3" r="3.8" fill="#eef0e6" fill-opacity="0.78"></circle><circle cx="794.3" cy="483.0" r="3.8" fill="#eef0e6" fill-opacity="0.78"></circle><circle cx="241.9" cy="538.0" r="4.0" fill="#eef0e6" fill-opacity="0.78"></circle><circle cx="342.4" cy="519.5" r="3.2" fill="#eef0e6" fill-opacity="0.78"></circle><circle cx="369.3" cy="542.3" r="7.0" fill="url(#brassGlow)"></circle><circle cx="369.3" cy="542.3" r="2.2" fill="#d8bf83" fill-opacity="0.95"></circle><circle cx="419.4" cy="542.4" r="2.2" fill="#eef0e6" fill-opacity="0.78"></circle><circle cx="602.1" cy="518.4" r="2.1" fill="#eef0e6" fill-opacity="0.78"></circle><circle cx="225.4" cy="559.9" r="4.4" fill="#eef0e6" fill-opacity="0.78"></circle><circle cx="267.9" cy="570.4" r="2.4" fill="#eef0e6" fill-opacity="0.78"></circle><circle cx="344.4" cy="577.3" r="3.0" fill="#eef0e6" fill-opacity="0.78"></circle><circle cx="386.8" cy="562.0" r="1.6" fill="#eef0e6" fill-opacity="0.78"></circle><circle cx="477.4" cy="570.9" r="2.5" fill="#eef0e6" fill-opacity="0.78"></circle><circle cx="578.3" cy="572.8" r="2.2" fill="#eef0e6" fill-opacity="0.78"></circle><circle cx="629.4" cy="562.9" r="2.5" fill="#eef0e6" fill-opacity="0.78"></circle><circle cx="225.5" cy="638.6" r="3.4" fill="#eef0e6" fill-opacity="0.78"></circle><circle cx="287.7" cy="632.7" r="2.3" fill="#eef0e6" fill-opacity="0.78"></circle><circle cx="349.5" cy="638.8" r="3.0" fill="#eef0e6" fill-opacity="0.78"></circle><circle cx="405.0" cy="608.1" r="4.4" fill="#eef0e6" fill-opacity="0.78"></circle><circle cx="431.8" cy="643.1" r="9.0" fill="url(#brassGlow)"></circle><circle cx="431.8" cy="643.1" r="2.9" fill="#d8bf83" fill-opacity="0.95"></circle><circle cx="488.6" cy="627.8" r="2.9" fill="#eef0e6" fill-opacity="0.78"></circle><circle cx="555.7" cy="630.2" r="3.5" fill="#eef0e6" fill-opacity="0.78"></circle><g stroke="#9a8654" stroke-opacity="0.5" fill="none" stroke-width="2" stroke-linecap="round" stroke-linejoin="round"><path d="M 110 812 L 120 812 L 128 782 L 136 812 L 154 812 L 162 782 L 170 812 L 188 812 L 196 782 L 204 812 L 268 812 L 276 782 L 284 812 L 302 812 L 310 782 L 318 812 L 336 812 L 344 782 L 352 812 L 416 812 L 424 782 L 432 812 L 450 812 L 458 782 L 466 812 L 484 812 L 492 782 L 500 812 L 564 812 L 572 782 L 580 812 L 598 812 L 606 782 L 614 812 L 632 812 L 640 782 L 648 812 L 712 812 L 720 782 L 728 812 L 746 812 L 754 782 L 762 812 L 780 812 L 788 782 L 796 812"></path></g></svg>